<svg width="76" height="118" viewBox="0 0 76 118" fill="none" xmlns="http://www.w3.org/2000/svg">
<g opacity="0.2">
<path d="M38.9434 67C52.167 67 62.8869 65.7016 62.8869 64.0999C62.8869 62.4982 52.167 61.1997 38.9434 61.1997C25.7198 61.1997 15 62.4982 15 64.0999C15 65.7016 25.7198 67 38.9434 67Z" fill="#000072"/>
</g>
<path d="M50.5371 51.97C50.5371 51.97 57.185 51.6905 56.9147 48C56.5528 43.0771 51.2862 40.406 51.4603 34.5141C51.7581 24.4414 70.3892 23.9924 70.671 36.2894C70.7488 39.721 69.0834 40.8619 67.5578 40.9168C65.1753 41.0039 63.9268 39.1644 63.6199 36.7682C63.0563 32.3882 56.9239 32.5967 56.539 36.7774C56.2252 40.17 64.1903 45.5328 61.2718 51.5736C59.2582 55.7429 54.4567 56.5997 51.4534 56.3935C50.8464 56.3546 50.5371 51.97 50.5371 51.97Z" fill="#BFBFBF"/>
<g opacity="0.5">
<path d="M70.6504 37.1509C69.9448 25.454 52.198 25.8572 51.4786 35.4557C51.4557 35.151 51.4489 34.8372 51.458 34.5142C51.7558 24.4415 70.3869 23.9902 70.6687 36.2895C70.6756 36.5965 70.6687 36.8829 70.6504 37.1509Z" fill="white"/>
</g>
<g opacity="0.3">
<path d="M50.6768 53.4613C50.8234 54.7373 51.0845 56.3706 51.451 56.3958C54.4543 56.602 59.2558 55.7453 61.2694 51.576C62.3438 49.3539 61.9429 47.2258 61.0266 45.2511C61.1297 46.3484 61.5535 47.59 60.7494 49.244C58.7427 53.3697 53.6846 53.6469 50.6768 53.4613Z" fill="#000072"/>
</g>
<g opacity="0.3">
<path d="M63.6183 36.7706C63.9276 39.1645 65.1738 41.004 67.5562 40.9169C68.6145 40.8803 69.7439 40.3167 70.3074 38.8277C69.7577 39.263 69.1139 39.4554 68.4931 39.4783C65.9801 39.5699 65.2425 37.7785 64.9768 35.2449C64.1956 27.7906 51.4633 32.2371 57.4171 39.4462C57.6164 39.6868 56.8673 38.4612 56.6153 37.648C56.542 37.3479 56.5122 37.0592 56.5374 36.782C56.9246 32.5967 63.0548 32.3883 63.6183 36.7706Z" fill="#000072"/>
</g>
<path d="M52.2966 56.8586C51.9599 56.8586 51.6644 56.8449 51.4216 56.8288C50.9496 56.7967 50.6358 56.3729 50.338 54.2288C50.1845 53.1269 50.1066 52.0479 50.1043 52.0021L50.0723 51.5577L50.519 51.5394C50.5579 51.5371 54.4271 51.3538 55.9253 49.6701C56.3468 49.1982 56.5277 48.6621 56.4819 48.0321C56.3239 45.8948 55.1785 44.1836 53.9666 42.3716C52.473 40.1403 50.9267 37.8335 51.0252 34.5004C51.1787 29.2728 56.0009 26.5559 60.6901 26.5696C63.3589 26.5788 65.8559 27.4241 67.7206 28.9475C69.8648 30.6999 71.0354 33.2359 71.1041 36.278C71.1866 39.9204 69.3356 41.2857 67.574 41.3499C65.2053 41.4392 63.5651 39.744 63.1894 36.8233C62.9328 34.8348 61.414 33.9735 60.0143 33.9964C58.6261 34.0216 57.1463 34.9036 56.9699 36.8187C56.8645 37.9503 57.9343 39.5172 59.0682 41.1758C61.0796 44.1217 63.5834 47.7893 61.6637 51.7639C60.7107 53.7362 59.1049 55.1703 56.892 56.0316C55.1533 56.7051 53.4695 56.8586 52.2966 56.8586ZM51.6071 55.9698C53.0205 56.0477 58.6307 56.0408 60.8803 51.3859C62.5823 47.8626 60.3351 44.5685 58.3512 41.6637C57.0752 39.7944 55.9734 38.1817 56.1062 36.7385C56.3307 34.3034 58.2825 33.1603 59.9983 33.1282C61.7783 33.0984 63.7254 34.1911 64.0484 36.7133C64.1973 37.8793 64.8411 40.5802 67.5396 40.4817C68.3781 40.4519 70.3184 39.9823 70.2336 36.2987C70.0939 30.2005 65.3382 27.4539 60.6855 27.4378C60.6741 27.4378 60.6604 27.4378 60.6489 27.4378C56.3949 27.4378 52.0286 29.8661 51.8912 34.5256C51.8018 37.5815 53.2679 39.7692 54.6859 41.8859C55.9092 43.7117 57.1715 45.597 57.3456 47.9657C57.4097 48.8293 57.1486 49.5968 56.5713 50.2451C55.1464 51.844 52.1454 52.2655 51.0023 52.3709C51.1329 53.9058 51.3849 55.5551 51.6071 55.9698Z" fill="#000072"/>
<path d="M55.8406 57.5985H22.0742C22.5163 55.184 23.1601 52.7168 23.8954 50.3321C25.0087 46.7149 26.3351 43.2925 27.4897 40.5572C27.5149 40.4977 27.5401 40.4381 27.5653 40.3786C27.618 40.2549 27.6706 40.1312 27.7233 40.0097C27.8379 39.7417 27.9501 39.4829 28.0601 39.2309C28.2136 38.8781 28.3625 38.5413 28.5045 38.2206C28.6099 37.9847 28.713 37.7556 28.8138 37.5357C28.9397 37.2585 29.0612 36.9973 29.1734 36.7522C29.8515 35.2884 30.2867 34.4316 30.2867 34.4316H47.6304C47.6304 34.4316 47.635 34.4431 47.6464 34.466C47.6831 34.537 47.7793 34.7272 47.9213 35.0204C48.1687 35.5289 48.5627 36.349 49.0484 37.412C49.0667 37.4532 49.085 37.4944 49.1057 37.5357C49.195 37.735 49.2912 37.9434 49.3874 38.1588C49.5318 38.4864 49.6852 38.83 49.8433 39.1896C49.951 39.4348 50.0609 39.6867 50.1709 39.9479C50.1938 40.0006 50.2144 40.051 50.2373 40.1037C50.2671 40.1747 50.2992 40.248 50.329 40.3236C51.3484 42.7289 52.5167 45.6909 53.5544 48.8637C53.7125 49.3493 53.8682 49.8373 54.0217 50.3298C54.7571 52.7145 55.4008 55.184 55.8406 57.5985Z" fill="#BFBFBF"/>
<path d="M38.2817 55.798C42.2201 55.798 45.4129 52.7847 45.4129 49.0677C45.4129 45.3506 42.2201 42.3373 38.2817 42.3373C34.3432 42.3373 31.1504 45.3506 31.1504 49.0677C31.1504 52.7847 34.3432 55.798 38.2817 55.798Z" fill="white"/>
<path d="M55.8423 57.6077H22.076C21.9477 57.6077 21.824 57.5504 21.7415 57.4519C21.659 57.3534 21.6247 57.2228 21.6476 57.0968C23.6543 46.1491 29.8372 33.9345 29.899 33.8131C30.0067 33.6001 30.2701 33.5153 30.4832 33.623C30.6962 33.7329 30.781 33.9941 30.6733 34.2071C30.6138 34.3263 24.6783 46.0529 22.5983 56.7417H55.3178C53.2377 46.0552 47.3022 34.3263 47.2427 34.2071C47.1327 33.9941 47.2198 33.7329 47.4328 33.623C47.6459 33.5153 47.907 33.6001 48.017 33.8131C48.0788 33.9345 54.2617 46.1491 56.2684 57.0968C56.2913 57.2228 56.257 57.3534 56.1745 57.4519C56.092 57.5504 55.9706 57.6077 55.8423 57.6077Z" fill="#000072"/>
<path d="M28.2291 54.1097C26.7814 50.0068 20.5595 48.921 18.9308 55.5872C17.6823 60.6957 21.6454 61.8709 21.6454 61.8709H54.917C54.917 61.8709 58.8801 60.6957 57.6316 55.5872C56.0028 48.921 49.781 50.0068 48.3332 54.1097" fill="#BFBFBF"/>
<g opacity="0.5">
<path d="M28.2291 54.1097H28.2405V54.9733H28.2291C26.7813 50.8705 20.5595 49.7846 18.9307 56.4509C18.8047 56.9686 18.7314 57.4451 18.7039 57.8849C18.6581 57.2252 18.7177 56.4646 18.9307 55.5872C20.5595 48.921 26.7813 50.0068 28.2291 54.1097Z" fill="white"/>
</g>
<g opacity="0.5">
<path d="M57.8588 57.8849C57.8313 57.445 57.7557 56.9686 57.632 56.4508C56.1132 50.229 50.5924 50.7605 48.6841 54.1921C48.5902 54.3616 48.3359 54.2975 48.3359 54.1028C49.7883 50.0045 56.0055 48.9233 57.632 55.5872C57.845 56.4646 57.9069 57.2251 57.8588 57.8849Z" fill="white"/>
</g>
<path d="M28.0235 54.1806C26.665 51.5737 23.5839 50.1557 21.1808 52.3251C20.0171 53.4544 19.4375 55.0946 19.2176 56.6868C18.9359 58.7187 19.7537 60.643 21.7146 61.4356L21.7673 61.4562L21.6436 61.4379C21.5863 61.4333 55.3985 61.4425 54.8441 61.4356C55.5406 61.1561 56.1682 60.675 56.6104 60.0703C57.5725 58.7714 57.529 56.9869 57.1006 55.4772C56.6837 53.9355 55.8888 52.3961 54.4295 51.6539C52.157 50.4993 49.5501 52.0158 48.5353 54.1806C48.4826 54.2929 48.3497 54.3387 48.2398 54.2814C48.1481 54.2356 48.1023 54.1302 48.1275 54.034C48.3429 53.1521 48.8285 52.3113 49.5203 51.6768C51.8386 49.5532 55.2405 50.0686 56.9356 52.7053C57.7008 53.8828 58.1108 55.2 58.2941 56.5699C58.5598 58.469 57.9528 60.4803 56.3286 61.6211C55.9644 61.8869 55.5635 62.0999 55.1397 62.2511C55.0778 62.2717 54.993 62.3038 54.9197 62.3015C54.922 62.3038 21.6436 62.2992 21.6436 62.3015C21.5657 62.3038 21.4855 62.2717 21.4191 62.2511C20.9953 62.0999 20.5944 61.8869 20.2302 61.6211C18.1478 60.1367 17.8638 57.5252 18.5281 55.2252C18.8763 53.9057 19.5017 52.5771 20.5325 51.6241C21.9689 50.2634 24.1337 49.9724 25.8861 50.8635C26.3122 51.072 26.7062 51.34 27.0544 51.6562C27.7554 52.2861 28.2434 53.1383 28.4312 54.0317C28.4839 54.2883 28.138 54.4028 28.0235 54.1806Z" fill="#000072"/>
<path d="M61.1963 57.2504C60.7405 60.5423 58.9788 63.179 56.8759 63.8273C56.6628 63.8937 56.4521 63.9464 56.2459 63.9876C54.6309 64.3175 53.2495 63.983 52.5256 63.7998C51.0893 63.4332 50.0585 63.179 48.558 63.0117C46.6704 62.801 44.0314 62.7231 38.8931 62.7231C33.7548 62.7231 31.1158 62.7987 29.2282 63.0117C29.1824 63.0163 29.1343 63.0232 29.0885 63.0278C29.0427 63.0324 28.9968 63.0369 28.951 63.0438C28.5891 63.0873 28.2546 63.1377 27.9316 63.195C27.8904 63.2019 27.8514 63.2087 27.8125 63.2156C27.6521 63.2454 27.4941 63.2752 27.3383 63.3073C27.2993 63.3141 27.2604 63.3233 27.2215 63.3302C27.1825 63.337 27.1436 63.3462 27.1046 63.3554C26.832 63.4149 26.5594 63.4768 26.2777 63.5455C26.2364 63.5547 26.1975 63.5661 26.1562 63.5753C25.8722 63.644 25.579 63.7196 25.2628 63.7998C24.5573 63.9807 23.2194 64.3038 21.6548 64.0105C21.6296 64.0059 21.6044 64.0014 21.5792 63.9945C21.3616 63.951 21.1394 63.896 20.9126 63.8273C20.2231 63.6142 19.5702 63.1881 18.986 62.5948C18.2919 61.8892 17.6986 60.9431 17.2656 59.8436C17.1946 59.6672 17.1305 59.4885 17.0686 59.3029C17.0389 59.2113 17.0091 59.1174 16.9793 59.0257C16.922 58.8379 16.8693 58.6478 16.8212 58.453C16.725 58.0636 16.6471 57.6627 16.5921 57.2527C16.5051 56.6227 16.473 55.837 16.6219 55.1199C16.6425 55.0168 16.6677 54.9183 16.6975 54.8198C16.7113 54.7717 16.7273 54.7213 16.7433 54.6732C16.7754 54.577 16.8121 54.4831 16.8556 54.3937C16.8968 54.3021 16.9426 54.2151 16.9953 54.1303C17.0457 54.0455 17.103 53.9654 17.1626 53.8875C17.2107 53.8279 17.2588 53.7729 17.3069 53.7248C17.9116 53.104 18.5599 53.1934 18.5599 53.1934C18.5599 53.1934 18.5668 53.1773 18.5806 53.1498C18.5874 53.1361 18.5966 53.1201 18.6081 53.0994C18.647 53.033 18.7066 52.9322 18.7844 52.8177C18.8623 52.7031 18.9654 52.5771 19.0822 52.4534C19.0983 52.4351 19.1166 52.4191 19.1349 52.4008C19.3297 52.2129 19.5702 52.0388 19.852 51.9563C21.018 51.6104 21.7144 52.1488 21.9274 52.3526C21.9343 52.3595 21.9412 52.3641 21.9457 52.371C21.9572 52.3824 21.9664 52.3916 21.9732 52.3985C21.9801 52.4053 21.9847 52.4122 21.9893 52.4168C21.9916 52.4214 21.9939 52.4237 21.9939 52.4237C21.9939 52.4237 22.7842 51.8189 23.7555 52.0228C23.7853 52.0296 23.815 52.0365 23.8448 52.0434C23.8654 52.048 23.8861 52.0525 23.9067 52.0594C23.9135 52.0594 23.9181 52.0617 23.925 52.064C23.9548 52.0709 23.9846 52.08 24.0143 52.0892C24.0487 52.1007 24.0808 52.1121 24.1151 52.1236C24.1197 52.1259 24.1243 52.1259 24.1289 52.1281C24.1449 52.1327 24.161 52.1396 24.177 52.1488C24.2503 52.1763 24.3213 52.2106 24.39 52.2473C24.4267 52.2679 24.4633 52.2862 24.5 52.3091C24.5366 52.3297 24.571 52.3504 24.6054 52.3733C24.6145 52.3778 24.6214 52.3847 24.6283 52.3893C24.6581 52.4099 24.6878 52.4305 24.7153 52.4511C24.7863 52.5015 24.8551 52.5565 24.9215 52.6161C24.9352 52.6275 24.949 52.639 24.9627 52.6504C24.9902 52.6734 25.0154 52.6986 25.0429 52.7238C25.1025 52.781 25.1597 52.8406 25.2147 52.9047C25.2308 52.9231 25.2468 52.9391 25.2605 52.9574C25.3064 53.0101 25.3522 53.0674 25.3957 53.1246C25.4255 53.1636 25.453 53.2002 25.4805 53.2415C25.5309 53.3125 25.5813 53.3881 25.6294 53.466C25.6614 53.5187 25.6935 53.5691 25.7233 53.624C25.7508 53.6744 25.7805 53.7248 25.808 53.7775C25.8126 53.7844 25.8149 53.7913 25.8195 53.7981C25.8768 53.9081 25.9317 54.0226 25.9844 54.1395C26.0371 54.2609 26.0875 54.3869 26.1379 54.5152C26.1608 54.5793 26.186 54.6457 26.2089 54.7145C26.2318 54.7809 26.2525 54.8473 26.2754 54.9161V54.9183C26.3555 55.1772 26.4266 55.4521 26.4884 55.7362C26.4884 55.7407 26.4907 55.7453 26.4907 55.7522C26.4976 55.7843 26.5044 55.8163 26.5113 55.8507C26.5182 55.8828 26.5228 55.9125 26.5296 55.9446C26.5961 56.2814 26.6488 56.6342 26.6877 57.0007H51.0962C51.1351 56.6296 51.1878 56.2745 51.2565 55.9355C51.6758 53.7936 52.6242 52.3183 54.033 52.0251C55.0043 51.8212 55.7946 52.4259 55.7946 52.4259C55.7946 52.4259 56.5185 51.5371 57.9388 51.9563C58.7566 52.1992 59.2308 53.1911 59.2308 53.1911C59.2308 53.1911 59.9868 53.0857 60.6282 53.8852C61.3361 54.7717 61.3384 56.2195 61.1963 57.2504Z" fill="#BFBFBF"/>
<path d="M61.1963 57.2503C60.7405 60.5422 58.9788 63.1789 56.8759 63.8272C56.6628 63.8937 56.4521 63.9463 56.2459 63.9876C54.6309 64.3175 53.2495 63.983 52.5256 63.7997C51.0893 63.4332 50.0585 63.1789 48.558 63.0117C46.6704 62.8009 44.0314 62.7231 38.8931 62.7231C33.7548 62.7231 31.1158 62.7986 29.2282 63.0117C29.1824 63.0163 29.1343 63.0231 29.0885 63.0277C29.0427 63.0323 28.9968 63.0392 28.951 63.0438C28.5891 63.0873 28.2546 63.1377 27.9316 63.195C27.8904 63.2018 27.8514 63.2087 27.8125 63.2156C27.6521 63.2454 27.4941 63.2751 27.3383 63.3072C27.2993 63.3141 27.2604 63.3232 27.2215 63.3301C27.1825 63.3393 27.1436 63.3462 27.1046 63.3553C26.832 63.4149 26.5594 63.4767 26.2777 63.5455C26.2364 63.5546 26.1975 63.5661 26.1562 63.5752C25.8722 63.644 25.579 63.7195 25.2628 63.7997C24.5573 63.9807 23.2194 64.3037 21.6548 64.0105C21.6296 64.0059 21.6044 64.0013 21.5792 63.9967C21.3616 63.9532 21.1394 63.8982 20.9126 63.8295C20.2231 63.6165 19.5702 63.1904 18.986 62.5971C18.2919 61.8892 17.7009 60.9454 17.2656 59.8458C17.1969 59.6694 17.1305 59.4907 17.0686 59.3052C17.0389 59.2135 17.0091 59.1196 16.9793 59.028C16.922 58.8401 16.8693 58.65 16.8212 58.4553C16.725 58.0659 16.6471 57.665 16.5921 57.2549C16.5051 56.6249 16.473 55.8392 16.6219 55.1222C16.6425 55.0191 16.6677 54.9206 16.6975 54.8221C16.7113 54.774 16.7273 54.7236 16.7433 54.6755C16.7777 54.5793 16.8144 54.4853 16.8556 54.396C16.8968 54.3044 16.9426 54.2173 16.9953 54.1326C17.048 54.0478 17.103 53.9676 17.1648 53.8897C17.213 53.8302 17.2611 53.7752 17.3092 53.7271C17.9139 53.1063 18.5622 53.1956 18.5622 53.1956C18.5622 53.1956 18.5691 53.1796 18.5829 53.1521C18.5897 53.1383 18.5989 53.1223 18.6103 53.1017C18.6493 53.0353 18.7088 52.9345 18.7867 52.8199C18.8669 52.7054 18.9677 52.5794 19.0845 52.4557C19.1006 52.4374 19.1189 52.4213 19.1372 52.403C19.3319 52.2151 19.5725 52.0411 19.8542 51.9586C21.0203 51.6127 21.7167 52.151 21.9297 52.3549C21.9366 52.3618 21.9435 52.3663 21.948 52.3732C21.9595 52.3847 21.9687 52.3938 21.9755 52.4007C21.9824 52.4076 21.987 52.4145 21.9916 52.419C21.9939 52.4236 21.9961 52.4259 21.9961 52.4259C21.9961 52.4259 22.7865 51.8211 23.7578 52.025C23.7876 52.0319 23.8173 52.0388 23.8471 52.0456C23.8677 52.0502 23.8883 52.0548 23.909 52.0617C23.9158 52.0617 23.9204 52.064 23.9273 52.0662C23.9571 52.0731 23.9869 52.0823 24.0166 52.0915C24.051 52.1029 24.0831 52.1144 24.1174 52.1258C24.122 52.1281 24.1266 52.1281 24.1312 52.1304C24.1472 52.135 24.1632 52.1418 24.1793 52.151C24.2526 52.1785 24.3236 52.2129 24.3923 52.2495C24.429 52.2701 24.4656 52.2885 24.5023 52.3114C24.5389 52.332 24.5733 52.3526 24.6077 52.3755C24.6168 52.3801 24.6237 52.387 24.6306 52.3915C24.6603 52.4122 24.6901 52.4328 24.7176 52.4534C24.7886 52.5038 24.8574 52.5588 24.9238 52.6183C24.9375 52.6298 24.9513 52.6412 24.965 52.6527C24.9925 52.6756 25.0177 52.7008 25.0452 52.726C25.1048 52.7833 25.162 52.8428 25.217 52.907C25.233 52.9253 25.2491 52.9413 25.2628 52.9597C25.3086 53.0123 25.3545 53.0696 25.398 53.1269C25.4278 53.1658 25.4553 53.2025 25.4827 53.2437C25.5354 53.3147 25.5835 53.3903 25.6316 53.4682C25.666 53.5209 25.6958 53.5713 25.7256 53.6263C25.7531 53.6767 25.7828 53.7271 25.8103 53.7798C25.8149 53.7866 25.8172 53.7935 25.8218 53.8004C25.8813 53.9103 25.934 54.0249 25.9867 54.1417C26.0417 54.2631 26.0921 54.3891 26.1402 54.5174C26.1631 54.5815 26.1883 54.648 26.2112 54.7167C26.2341 54.7831 26.2547 54.8496 26.2777 54.9183V54.9206C26.3601 55.1794 26.4311 55.4521 26.4907 55.7384C26.4907 55.743 26.493 55.7476 26.493 55.7544C26.4999 55.7865 26.5067 55.8186 26.5136 55.8529C26.5205 55.8804 26.5251 55.9102 26.5319 55.9377C26.5319 55.94 26.5319 55.9423 26.5319 55.9469C26.5732 56.4371 26.6052 56.9686 26.6304 57.5458C26.6304 57.571 26.6327 57.5962 26.6327 57.6214C26.7037 59.1105 28.1424 60.1436 29.581 59.745C29.5879 59.7427 29.597 59.7404 29.6039 59.7381C30.6393 59.4495 31.1708 58.3087 30.7149 57.3351C30.1972 56.2332 29.9132 55.0008 29.9246 53.6973C29.9681 49.2234 33.5945 45.5398 38.0684 45.4252C42.7829 45.3061 46.6429 49.0928 46.6429 53.7821C46.6429 54.9481 46.4046 56.0591 45.9717 57.0694C45.5479 58.0613 46.1091 59.1975 47.1606 59.4426C47.5202 59.5274 47.873 59.6167 48.2189 59.7106C49.6553 60.1024 51.0939 59.0692 51.158 57.5825C51.158 57.571 51.158 57.5596 51.158 57.5458C51.181 56.9663 51.2153 56.4302 51.2565 55.9377C51.6758 53.7958 52.6242 52.3205 54.033 52.0273C55.0043 51.8234 55.7946 52.4282 55.7946 52.4282C55.7946 52.4282 56.5185 51.5394 57.9388 51.9586C58.7566 52.2014 59.2308 53.1933 59.2308 53.1933C59.2308 53.1933 59.9868 53.0879 60.6282 53.8874C61.3361 54.7717 61.3384 56.2195 61.1963 57.2503Z" fill="white"/>
<g opacity="0.3">
<path d="M61.1966 57.2503C60.7407 60.5422 58.9814 63.1789 56.8761 63.8272C54.9954 64.4045 53.3414 64.0059 52.5259 63.7975C49.2821 62.9682 48.1184 62.7231 38.8933 62.7231C29.6683 62.7231 28.5046 62.9705 25.2608 63.7975C24.4453 64.0059 22.789 64.4045 20.9105 63.8272C18.8076 63.1789 17.046 60.5422 16.5901 57.2503C16.5145 56.6914 16.4778 56.011 16.5764 55.3673C16.5809 55.4063 16.5855 55.4452 16.5901 55.4818C17.046 58.7737 18.8053 61.4104 20.9105 62.0587C22.789 62.6383 24.4453 62.2374 25.2608 62.029C28.5046 61.1997 29.6683 60.4804 38.8933 60.4804C48.1184 60.4804 49.2821 61.1997 52.5259 62.029C53.3414 62.2374 54.9977 62.636 56.8761 62.0587C58.9791 61.4127 60.7407 58.7737 61.1966 55.4818C61.2011 55.4452 61.2057 55.4063 61.2103 55.3673C61.3088 56.011 61.2722 56.6914 61.1966 57.2503Z" fill="#000072"/>
</g>
<path d="M50.8806 56.9778C50.8783 55.1108 51.4098 52.8772 53.176 51.8784C53.6502 51.6242 54.2137 51.4913 54.7498 51.5646C55.1988 51.6196 55.6157 51.7799 55.9914 52.025C55.9891 52.025 56.0349 52.0502 55.9685 52.0113C55.8333 51.938 55.6501 51.9586 55.5355 52.0617C56.1288 51.4363 57.2513 51.221 58.1814 51.5715C58.8228 51.8143 59.2924 52.3664 59.6109 52.9482C59.5513 52.8222 59.368 52.7237 59.2443 52.7421C60.1263 52.7123 60.8525 53.2873 61.2442 53.9997C62.0643 55.585 61.7001 57.5459 61.2442 59.1815C60.6349 61.1104 59.5421 63.0484 57.6614 64.0105C56.4473 64.5924 55.0384 64.6863 53.7212 64.5145C52.3582 64.3083 51.0547 63.8456 49.71 63.6394C46.1685 63.1011 42.4894 63.2294 38.8974 63.1835C35.3032 63.2225 31.6264 63.0919 28.0826 63.6257C26.7379 63.8318 25.4344 64.29 24.0714 64.4962C22.8756 64.6542 21.6225 64.5763 20.4886 64.1434C18.1016 63.1538 16.8164 60.5308 16.3056 58.1438C15.9986 56.6387 15.8428 54.7626 16.9103 53.5049C17.2883 53.0628 17.9045 52.7192 18.5483 52.7489C18.5528 52.7466 18.4589 52.7489 18.42 52.765C18.3215 52.7948 18.2367 52.8635 18.1909 52.9505C18.5345 52.3137 19.0797 51.6975 19.8151 51.5142C20.6466 51.2737 21.6271 51.4317 22.2639 52.0732C22.2594 52.0686 22.3075 52.1144 22.2525 52.064C22.2158 52.0342 22.1723 52.0067 22.1265 51.9907C22.0303 51.9563 21.9157 51.9655 21.8287 52.0136C21.7645 52.0525 21.8081 52.025 21.8058 52.0273L21.8287 52.0136C22.6511 51.4753 23.6453 51.379 24.5364 51.8143C26.3576 52.7604 26.8616 55.0993 26.912 56.9755C26.9234 57.2412 26.5271 57.2847 26.4813 57.0213C26.3003 56.1416 26.0713 55.2803 25.7185 54.4945C25.1206 53.1017 23.7759 51.8097 22.3052 52.7398L22.2914 52.7489C22.2777 52.7558 22.3098 52.7398 22.2319 52.7856C22.1196 52.8474 21.973 52.8589 21.8516 52.8154C21.76 52.7856 21.6889 52.7283 21.6271 52.6619C21.1896 52.245 20.4863 52.19 19.9205 52.3939C19.5379 52.5428 19.2538 52.8841 19.0385 53.2346C18.9583 53.3904 18.8575 53.5576 18.672 53.6034C18.6216 53.624 18.5139 53.624 18.5024 53.6217C18.3238 53.6172 18.1474 53.6675 17.9779 53.7569C16.6721 54.5358 16.9058 56.6708 17.1761 57.9605C17.6159 59.9947 18.6399 62.1916 20.5436 63.1835C22.0142 63.8639 23.7026 63.7494 25.2397 63.3324C29.6816 62.0656 34.3479 62.3176 38.902 62.2535C43.4584 62.3107 48.1248 62.0565 52.5689 63.3187C54.0144 63.715 55.5607 63.8204 56.9765 63.2866C59.0313 62.4276 60.163 60.0428 60.6119 57.9559C60.8112 57.0327 60.9189 56.0317 60.7105 55.1108C60.557 54.3914 60.0736 53.6446 59.3016 53.6309C59.2902 53.6332 59.1802 53.6309 59.1275 53.6126C58.9969 53.5759 58.8893 53.4843 58.8274 53.3697C58.7999 53.3193 58.7816 53.285 58.7541 53.2392C58.5296 52.8749 58.2318 52.5176 57.824 52.3824C57.2903 52.2129 56.6489 52.2587 56.2251 52.6252C56.2044 52.6436 56.1792 52.6642 56.1609 52.6848C56.0166 52.8474 55.7577 52.8933 55.5676 52.7902C55.1438 52.5061 54.6215 52.3435 54.1198 52.4534C52.3055 52.8864 51.7236 55.4315 51.3228 57.0213C51.2472 57.2756 50.8852 57.232 50.8806 56.9778Z" fill="#000072"/>
<path d="M21.6932 61.3475C22.8528 61.2831 23.7329 60.1486 23.6589 58.8133C23.5848 57.478 22.5847 56.4477 21.425 56.512C20.2653 56.5763 19.3852 57.7109 19.4593 59.0462C19.5333 60.3814 20.5335 61.4118 21.6932 61.3475Z" fill="#FFA1A8"/>
<path d="M18.7866 57.5399C19.2249 57.4767 19.5203 57.0103 19.4465 56.4981C19.3726 55.9859 18.9575 55.622 18.5192 55.6851C18.0809 55.7483 17.7854 56.2148 17.8593 56.7269C17.9331 57.2391 18.3483 57.6031 18.7866 57.5399Z" fill="#FFA1A8"/>
<path d="M20.8921 55.8146C21.3304 55.7514 21.6258 55.285 21.552 54.7728C21.4781 54.2606 21.063 53.8966 20.6247 53.9598C20.1864 54.023 19.8909 54.4894 19.9648 55.0016C20.0386 55.5138 20.4538 55.8778 20.8921 55.8146Z" fill="#FFA1A8"/>
<path d="M23.5053 56.2129C23.9436 56.1497 24.2391 55.6833 24.1652 55.1711C24.0914 54.6589 23.6762 54.2949 23.2379 54.3581C22.7996 54.4213 22.5042 54.8877 22.578 55.3999C22.6519 55.9121 23.067 56.2761 23.5053 56.2129Z" fill="#FFA1A8"/>
<path d="M58.2263 59.0415C58.3003 57.7062 57.4202 56.5716 56.2605 56.5073C55.1008 56.443 54.1007 57.4733 54.0267 58.8086C53.9526 60.1439 54.8327 61.2785 55.9924 61.3428C57.1521 61.4071 58.1522 60.3768 58.2263 59.0415Z" fill="#FFA1A8"/>
<path d="M59.8293 56.7265C59.9031 56.2143 59.6077 55.7479 59.1694 55.6847C58.7311 55.6215 58.3159 55.9855 58.2421 56.4977C58.1683 57.0098 58.4637 57.4763 58.902 57.5395C59.3403 57.6027 59.7555 57.2387 59.8293 56.7265Z" fill="#FFA1A8"/>
<path d="M57.7258 55.0018C57.7996 54.4896 57.5042 54.0232 57.0659 53.96C56.6276 53.8968 56.2124 54.2608 56.1386 54.7729C56.0647 55.2851 56.3602 55.7515 56.7985 55.8147C57.2368 55.8779 57.6519 55.5139 57.7258 55.0018Z" fill="#FFA1A8"/>
<path d="M55.1115 55.4011C55.1854 54.8889 54.8899 54.4225 54.4516 54.3593C54.0133 54.2961 53.5982 54.66 53.5243 55.1722C53.4505 55.6844 53.7459 56.1508 54.1842 56.214C54.6225 56.2772 55.0377 55.9132 55.1115 55.4011Z" fill="#FFA1A8"/>
<g opacity="0.3">
<path d="M20.7683 32.2647C20.773 32.2739 20.7776 32.2809 20.7823 32.2902L20.7637 32.26C20.766 32.2623 20.766 32.2623 20.7683 32.2647Z" fill="#6B184E"/>
<path d="M20.7822 32.2898L21.3114 33.1397C21.1281 32.8625 20.9517 32.583 20.7822 32.2898Z" fill="#6B184E"/>
</g>
<g opacity="0.3">
<path d="M20.7686 31.9919C20.7708 31.9965 20.7754 31.9987 20.7776 32.001C20.7822 32.0078 20.7867 32.0123 20.7912 32.0191L20.7686 31.9919Z" fill="#6B184E"/>
<path d="M21.3022 32.6471C21.1258 32.4432 20.954 32.2347 20.7891 32.0171L21.3022 32.6471Z" fill="#6B184E"/>
<path d="M56.5078 32.6471L57.0209 32.0217C56.8583 32.2371 56.6865 32.4455 56.5078 32.6471Z" fill="#6B184E"/>
</g>
<path d="M21.3107 32.8648C21.132 32.6609 20.9602 32.4501 20.793 32.2302L21.3107 32.8648Z" fill="white"/>
<path d="M56.4727 32.8648L56.9881 32.2325C56.8254 32.4502 56.6513 32.6609 56.4727 32.8648Z" fill="white"/>
<g opacity="0.25">
<path d="M56.9993 31.7445C56.9971 31.7513 56.9925 31.7581 56.9902 31.7649C56.9925 31.7604 56.9948 31.7536 56.9993 31.7445C56.9993 31.7468 56.9971 31.7468 56.9993 31.7445Z" fill="#6B184E"/>
</g>
<g opacity="0.3">
<path d="M49.8408 39.1919C42.7073 41.5514 35.1751 41.5583 28.0576 39.2309C28.2111 38.8781 28.36 38.5413 28.502 38.2206C28.6074 37.9847 28.7105 37.7556 28.8113 37.5357C28.9373 37.2585 29.0587 36.9973 29.1709 36.7522C29.849 35.2884 30.2843 34.4316 30.2843 34.4316H47.6279C47.6279 34.4316 47.6325 34.4431 47.644 34.466C47.6806 34.537 47.7768 34.7272 47.9189 35.0204C48.1663 35.5289 48.5603 36.349 49.0459 37.412C49.0643 37.4532 49.0826 37.4944 49.1032 37.5357C49.1925 37.735 49.2888 37.9434 49.385 38.1588C49.5316 38.4864 49.6851 38.83 49.8408 39.1919Z" fill="#000072"/>
</g>
<path d="M61.3081 28.5467C61.2096 29.4126 59.4434 28.5925 59.0585 28.4023C59.0288 28.3863 58.9944 28.4184 59.0036 28.4573C59.0265 28.5512 59.0723 28.7185 59.1616 28.9613C59.2166 29.1056 59.2853 29.2774 59.3747 29.479C59.6748 30.1411 59.9176 30.6565 59.7824 31.0047C59.6381 31.3735 59.0379 31.5178 58.2888 31.4331C58.0002 31.401 57.6932 31.5659 57.4023 31.8179C57.274 31.9302 57.1457 32.0585 57.022 32.1936L57.0174 32.1959L56.9922 32.2303C56.9991 32.2211 57.006 32.2097 57.0128 32.2005C56.9075 32.3173 56.8067 32.441 56.7082 32.5624C56.6257 32.6655 56.5455 32.7686 56.4722 32.8671C56.4402 32.9038 56.4081 32.9404 56.3737 32.9748C55.73 33.6987 55.0038 34.3424 54.2158 34.9151C53.1483 35.6642 51.9731 36.2552 50.7315 36.7202V36.7111C50.7315 36.7111 49.0294 37.3387 46.5141 37.9137C46.5141 37.9137 44.2645 38.3948 42.2097 38.6605C42.2097 38.6605 40.6382 38.8461 38.9087 38.8461C37.1814 38.8461 35.5824 38.6605 35.5824 38.6605C33.5276 38.3948 31.278 37.9137 31.278 37.9137C28.7627 37.3365 27.0606 36.7111 27.0606 36.7111V36.7202C25.8213 36.2575 24.6438 35.6665 23.5763 34.9151C22.8204 34.3653 22.1217 33.7491 21.494 33.0572C21.4344 32.9931 21.3772 32.929 21.3199 32.8648C21.2328 32.7503 21.1389 32.6312 21.0427 32.5097C20.9557 32.4021 20.8663 32.2967 20.7747 32.1936C20.7816 32.2051 20.7907 32.2165 20.7976 32.228L20.7678 32.189C20.7678 32.189 20.7701 32.1913 20.7724 32.1913C20.6693 32.0768 20.5593 31.9645 20.4494 31.866C20.1378 31.5843 19.8103 31.3918 19.501 31.4262C18.7542 31.511 18.1517 31.3666 18.0074 30.9978C17.8722 30.6496 18.1151 30.1342 18.4129 29.4721C18.4747 29.3347 18.5251 29.211 18.5709 29.101C18.6992 28.7757 18.7588 28.5604 18.7863 28.4504C18.7931 28.4115 18.7634 28.3817 18.7313 28.3955C18.3464 28.5833 16.5802 29.4057 16.4817 28.5398C16.4634 28.3909 16.5252 28.1504 16.6283 27.8434C16.8574 27.1607 17.2881 26.1505 17.4736 25.1242C17.5996 24.4301 17.7119 23.8253 17.8104 23.3007C17.9478 22.5745 18.0601 21.9996 18.1494 21.546C18.3991 20.2906 18.4862 19.9699 18.4862 19.9699C18.4908 19.9401 19.2536 16.8544 20.3921 14.5819C19.2559 11.5489 18.5091 2.70872 20.4127 0.862332C21.9407 -0.619816 27.686 2.49109 29.8417 4.66735C30.4671 4.4062 31.1612 4.18628 31.8759 4.00302C32.7876 3.77165 33.736 3.59526 34.6317 3.46697C35.7336 3.30662 36.7553 3.21499 37.5319 3.1623C38.21 3.11877 38.7025 3.10274 38.8949 3.10274C39.0873 3.10274 39.573 3.11648 40.2442 3.16001C40.4572 3.17604 40.6932 3.19208 40.9406 3.21269C41.5958 3.26767 42.3563 3.35014 43.1581 3.46697C44.0538 3.59526 45.0022 3.77165 45.9139 4.00302C46.6309 4.18628 47.3228 4.40391 47.9482 4.66506C50.1038 2.4888 55.8491 -0.622106 57.3771 0.860042C59.2807 2.70643 58.5339 11.5466 57.3977 14.5796C58.117 16.016 58.6874 17.7776 59.0081 18.8864C59.196 19.5324 59.3014 19.9584 59.3036 19.9676C59.3036 19.9676 59.3907 20.2929 59.6404 21.5551C59.7297 21.9996 59.8374 22.5608 59.9703 23.2664C60.0711 23.8001 60.1856 24.4163 60.3139 25.1242C60.4949 26.1161 60.9026 27.092 61.1363 27.7747C61.2531 28.1206 61.3264 28.3863 61.3081 28.5467Z" fill="#BFBFBF"/>
<g opacity="0.5">
<path d="M58.5367 6.94431C58.4909 4.72452 58.1565 2.79796 57.3776 2.04428C55.8496 0.562135 50.102 3.67304 47.9487 5.8493C47.3233 5.58815 46.6292 5.36824 45.9144 5.18726C45.0027 4.9536 44.0543 4.7795 43.1586 4.65122C42.3568 4.53439 41.5963 4.45192 40.9411 4.39694C40.6937 4.37632 40.4577 4.35799 40.2447 4.34425C39.5735 4.30072 39.0878 4.28698 38.8954 4.28698C38.7007 4.28698 38.2105 4.30072 37.5324 4.34654C36.7558 4.39923 35.7341 4.49086 34.6322 4.65122C33.7365 4.78179 32.7881 4.95589 31.8764 5.18726C31.1594 5.37053 30.4676 5.59044 29.8422 5.85159C27.6865 3.67533 21.9412 0.564427 20.4132 2.04658C19.6344 2.80254 19.2976 4.72681 19.2518 6.94889C19.1945 4.2572 19.4992 1.75793 20.4132 0.873685C21.9412 -0.608463 27.6865 2.50244 29.8422 4.6787C30.4676 4.41755 31.1617 4.19764 31.8764 4.01437C32.7881 3.783 33.7365 3.60661 34.6322 3.47833C35.7341 3.31797 36.7558 3.22634 37.5324 3.17365C38.2105 3.13012 38.703 3.11409 38.8954 3.11409C39.0878 3.11409 39.5735 3.12783 40.2447 3.17136C40.4577 3.18739 40.6937 3.20343 40.9411 3.22405C41.5963 3.27903 42.3568 3.36149 43.1586 3.47833C44.0543 3.60661 45.0027 3.783 45.9144 4.01437C46.6314 4.19764 47.3233 4.41526 47.9487 4.67641C50.1043 2.50015 55.8496 -0.610754 57.3776 0.871395C58.2893 1.75335 58.594 4.25033 58.5367 6.94431Z" fill="white"/>
</g>
<path d="M18.567 29.1079C18.6953 28.7826 18.7549 28.5673 18.7824 28.4573C18.7892 28.4183 18.7594 28.3886 18.7274 28.4023C18.3425 28.5902 16.5763 29.4126 16.4778 28.5466C16.4595 28.3977 16.5213 28.1572 16.6244 27.8502C18.3448 27.0966 20.6631 26.2833 23.2196 25.9305C23.2173 25.9305 20.9334 27.273 18.567 29.1079Z" fill="white"/>
<path d="M24.2343 29.4309C24.1908 29.4813 22.8919 31.0207 21.4899 33.0641C21.4304 33 21.3731 32.9358 21.3158 32.8717C21.2288 32.7572 21.1348 32.638 21.0386 32.5166C20.9516 32.409 20.8622 32.3036 20.7706 32.2005C20.7775 32.2119 20.7866 32.2234 20.7935 32.2348L20.7637 32.1959C20.7637 32.1959 20.766 32.1982 20.7683 32.1982C20.6652 32.0837 20.5553 31.9714 20.4453 31.8729C21.538 31.0184 22.814 30.1571 24.2343 29.4309Z" fill="white"/>
<path d="M22.9014 22.3226C22.9014 22.3226 20.5281 22.6272 17.8066 23.3076C17.9441 22.5814 18.0563 22.0064 18.1457 21.5529C19.6095 21.6468 21.2451 21.8713 22.9014 22.3226Z" fill="white"/>
<path d="M61.3088 28.5466C61.2103 29.4125 59.4441 28.5924 59.0592 28.4023C59.0295 28.3863 58.9951 28.4183 59.0043 28.4573C59.0272 28.5512 59.073 28.7184 59.1623 28.9612C56.8647 27.2019 54.7021 25.9282 54.7021 25.9282C57.1808 26.2718 59.4349 27.0461 61.1393 27.7792C61.2538 28.1205 61.3271 28.3863 61.3088 28.5466Z" fill="white"/>
<path d="M57.4009 31.8179C57.2726 31.9301 57.1443 32.0584 57.0206 32.1936L57.016 32.1958L56.9908 32.2302C56.9977 32.221 57.0046 32.2096 57.0115 32.2004C56.9061 32.3173 56.8053 32.441 56.7068 32.5624C56.6243 32.6655 56.5441 32.7685 56.4708 32.8671C56.4388 32.9037 56.4067 32.9404 56.3723 32.9747C54.9933 30.9726 53.7287 29.4767 53.6875 29.4263C55.0734 30.1387 56.3242 30.9817 57.4009 31.8179Z" fill="white"/>
<path d="M59.9713 23.2709C57.3094 22.6158 55.0186 22.3225 55.0186 22.3225C56.6244 21.8827 58.2119 21.6605 59.6414 21.5597C59.7307 22.0064 59.8384 22.5676 59.9713 23.2709Z" fill="white"/>
<g opacity="0.3">
<path d="M59.3753 29.479C59.6754 30.141 59.9183 30.6564 59.7831 31.0046C59.6388 31.3735 59.0386 31.5178 58.2895 31.433C58.0009 31.401 57.6939 31.5659 57.403 31.8179C57.2747 31.9301 57.1464 32.0584 57.0227 32.1936L57.0181 32.1959L56.9929 32.2302C56.9998 32.2211 57.0067 32.2096 57.0135 32.2004C56.9081 32.3173 56.8074 32.441 56.7089 32.5624C56.6264 32.6655 56.5462 32.7686 56.4729 32.8671C56.4408 32.9037 56.4088 32.9404 56.3744 32.9747C55.7307 33.6986 55.0045 34.3423 54.2165 34.915C53.1489 35.6641 51.9738 36.2552 50.7322 36.7202V36.711C50.7322 36.711 49.0301 37.3387 46.5148 37.9137C46.5148 37.9137 44.2652 38.3948 42.2104 38.6605C42.2104 38.6605 40.6389 38.8461 38.9093 38.8461C37.1821 38.8461 35.5831 38.6605 35.5831 38.6605C33.5282 38.3948 31.2787 37.9137 31.2787 37.9137C28.7634 37.3364 27.0613 36.711 27.0613 36.711V36.7202C25.822 36.2574 24.6445 35.6664 23.577 34.915C22.821 34.3652 22.1223 33.749 21.4947 33.0572C21.4351 32.9931 21.3778 32.9289 21.3206 32.8648C21.2335 32.7502 21.1396 32.6311 21.0434 32.5097C20.9563 32.402 20.867 32.2967 20.7754 32.1936C20.7822 32.205 20.7914 32.2165 20.7983 32.2279L20.7685 32.189C20.7685 32.189 20.7708 32.1913 20.7731 32.1913C20.67 32.0767 20.56 31.9645 20.4501 31.866C20.1385 31.5842 19.8109 31.3918 19.5017 31.4261C18.7549 31.5109 18.1524 31.3666 18.0081 30.9978C17.8729 30.6496 18.1157 30.1341 18.4135 29.4721C18.4754 29.3346 18.5258 29.2109 18.5716 29.101C18.5831 29.0758 18.5922 29.0506 18.6014 29.0254C18.8511 29.0827 19.1603 29.0895 19.5017 29.0506C19.8109 29.0139 20.1408 29.2087 20.4501 29.4904C20.56 29.5889 20.6677 29.6989 20.7731 29.8157C20.7731 29.8157 20.7708 29.8134 20.7685 29.8134L20.7983 29.8524C20.7914 29.8409 20.7822 29.8295 20.7754 29.818C20.867 29.9211 20.9586 30.0265 21.0434 30.1341C21.1419 30.2556 21.2335 30.3747 21.3206 30.4892C21.3778 30.5534 21.4351 30.6175 21.4947 30.6816C22.1223 31.3712 22.821 31.9874 23.577 32.5395C24.6445 33.2886 25.8197 33.8796 27.0613 34.3446V34.3355C27.0613 34.3355 28.7634 34.9631 31.2787 35.5381C31.2787 35.5381 33.5282 36.0192 35.5831 36.2849C35.5831 36.2849 37.1821 36.4705 38.9093 36.4705C40.6389 36.4705 42.2104 36.2849 42.2104 36.2849C44.2652 36.0192 46.5148 35.5381 46.5148 35.5381C49.0324 34.9609 50.7322 34.3355 50.7322 34.3355V34.3446C51.9715 33.8819 53.1489 33.2909 54.2165 32.5395C55.0045 31.9668 55.7307 31.3231 56.3744 30.5992C56.4088 30.5625 56.4408 30.5282 56.4729 30.4915C56.5462 30.393 56.6264 30.2899 56.7089 30.1868C56.8074 30.0654 56.9081 29.9417 57.0135 29.8249C57.0067 29.834 56.9998 29.8455 56.9929 29.8547L57.0181 29.8203L57.0227 29.818C57.1464 29.6828 57.2724 29.5523 57.403 29.4423C57.6962 29.1903 58.0009 29.0254 58.2895 29.0575C58.6308 29.0964 58.9401 29.0872 59.1898 29.0323C59.2379 29.1628 59.2997 29.3117 59.3753 29.479Z" fill="#000072"/>
</g>
<path d="M38.652 10.3165C38.2992 8.26163 37.6555 4.46807 37.5432 3.4143C37.5295 3.27914 37.6303 3.16002 37.7655 3.15314C38.3198 3.12107 38.7207 3.10962 38.8902 3.10962C39.0598 3.10962 39.4538 3.11878 40.0013 3.15314C40.1364 3.16002 40.2372 3.28143 40.2235 3.4143C40.1112 4.46807 39.4698 8.26163 39.117 10.3165C39.0735 10.5776 38.6978 10.5776 38.652 10.3165Z" fill="white"/>
<path d="M45.7811 4.2847L43.5568 8.98313C43.4491 9.21221 43.1032 9.13432 43.1055 8.88005L43.1513 3.75782C43.1536 3.60891 43.2887 3.49895 43.4331 3.52644L45.6093 3.95024C45.7651 3.98231 45.8476 4.14496 45.7811 4.2847Z" fill="white"/>
<path d="M34.227 8.98313L32.0027 4.2847C31.9362 4.14496 32.0187 3.98002 32.1722 3.95024L34.3485 3.52644C34.4928 3.49895 34.6302 3.60891 34.6302 3.75782L34.676 8.88234C34.6806 9.13432 34.3347 9.2145 34.227 8.98313Z" fill="white"/>
<g opacity="0.3">
<path d="M20.7979 32.2347L21.3133 32.8647C21.1323 32.6608 20.9605 32.4524 20.7979 32.2347Z" fill="#6B184E"/>
<path d="M56.4727 32.8647L56.9881 32.2347C56.8231 32.4524 56.649 32.6608 56.4727 32.8647Z" fill="#6B184E"/>
</g>
<g opacity="0.3">
<path d="M20.7683 30.1753C20.7776 30.1893 20.787 30.2009 20.7986 30.2149L20.7637 30.173C20.7637 30.173 20.7683 30.173 20.7683 30.1753Z" fill="#6B184E"/>
<path d="M57.0156 30.1754C57.0179 30.1731 57.0203 30.1731 57.0203 30.1708L56.9854 30.2127C56.997 30.201 57.0063 30.1894 57.0156 30.1754Z" fill="#6B184E"/>
</g>
<path d="M24.6606 8.57538C23.1533 10.1056 22.2049 12.2452 22.0697 11.9955C22.056 11.9726 22.0445 11.9429 22.0308 11.9085C21.7421 11.2098 21.2633 8.43564 21.2656 5.96157C21.2679 5.56297 21.2771 5.21019 21.3 4.90093C21.3573 4.0625 21.4833 3.52645 21.6367 3.18283C21.8269 2.76361 22.2576 2.63304 22.6378 2.77507C23.6504 3.15076 26.5253 4.94217 27.4622 6.08986C27.6295 6.29374 26.1679 7.04512 24.6606 8.57538Z" fill="#FFA1A8"/>
<path d="M24.6604 8.57538C23.1531 10.1056 22.2047 12.2452 22.0695 11.9955C22.0558 11.9726 22.0443 11.9429 22.0306 11.9085C22.365 10.6119 23.2905 8.8182 24.0007 7.52161C24.9697 5.75082 23.6341 4.34427 22.475 3.92505C22.0764 3.78073 21.6068 4.39924 21.2998 4.90093C21.3571 4.0625 21.4831 3.52645 21.6366 3.18283C21.8267 2.76361 22.2574 2.63304 22.6376 2.77507C23.6502 3.15076 26.5251 4.94217 27.4621 6.08986C27.6293 6.29374 26.1678 7.04512 24.6604 8.57538Z" fill="#FF8392"/>
<path d="M22.1061 12.4491C22.0992 12.4491 22.0923 12.4491 22.0832 12.4491C21.9159 12.4445 21.7693 12.3506 21.6868 12.2017C21.3478 11.574 20.8278 8.52956 20.8301 5.96386C20.8301 4.58251 20.9652 3.6135 21.2378 3.00644C21.5105 2.40625 22.161 2.13822 22.7864 2.36959C23.8242 2.75445 26.7976 4.59167 27.7987 5.81725C27.8835 5.92263 27.9224 6.0532 27.9064 6.18836C27.872 6.48616 27.62 6.6763 27.013 7.13675C26.4723 7.5468 25.7324 8.11034 24.9696 8.88234C24.1311 9.73223 23.4668 10.7906 23.0247 11.4916C22.5665 12.2177 22.4199 12.4491 22.1061 12.4491ZM21.6983 5.96386C21.696 7.90188 22.0007 10.0071 22.2458 11.0953C22.2618 11.0723 22.2756 11.0471 22.2893 11.0242C22.7498 10.2912 23.4462 9.18702 24.351 8.2684C25.1551 7.45059 25.9569 6.84353 26.4884 6.44035C26.6327 6.33039 26.7885 6.21356 26.9076 6.11734C25.8446 5.0315 23.3362 3.49438 22.4863 3.18054C22.3328 3.12327 22.1313 3.14159 22.0328 3.36151C21.8128 3.84945 21.7006 4.72454 21.6983 5.96386Z" fill="#000072"/>
<path d="M53.0062 8.57538C54.5135 10.1056 55.4619 12.2452 55.5971 11.9955C55.6108 11.9726 55.6223 11.9429 55.636 11.9085C55.9247 11.2098 56.4034 8.43564 56.4011 5.96157C56.3988 5.56297 56.3897 5.21019 56.3668 4.90093C56.3095 4.0625 56.1835 3.52645 56.03 3.18283C55.8399 2.76361 55.4092 2.63304 55.029 2.77507C54.0164 3.15076 51.1415 4.94217 50.2045 6.08986C50.0373 6.29374 51.4965 7.04512 53.0062 8.57538Z" fill="#FFA1A8"/>
<path d="M53.0062 8.57538C54.5135 10.1056 55.4619 12.2452 55.5971 11.9955C55.6108 11.9726 55.6223 11.9429 55.636 11.9085C55.3016 10.6119 54.3761 8.8182 53.6659 7.52161C52.6969 5.75082 54.0325 4.34427 55.1916 3.92505C55.5902 3.78073 56.0598 4.39924 56.3668 4.90093C56.3095 4.0625 56.1835 3.52645 56.03 3.18283C55.8399 2.76361 55.4092 2.63304 55.029 2.77507C54.0164 3.15076 51.1415 4.94217 50.2045 6.08986C50.0373 6.29374 51.4965 7.04512 53.0062 8.57538Z" fill="#FF8392"/>
<path d="M55.561 12.4491C55.2472 12.4491 55.1006 12.2177 54.6401 11.487C54.2003 10.786 53.5337 9.72765 52.6952 8.88005C51.9347 8.10805 51.1925 7.54452 50.6518 7.13446C50.0448 6.67401 49.7928 6.48388 49.7584 6.18607C49.7424 6.05091 49.7813 5.92034 49.8661 5.81496C50.8649 4.59167 53.8406 2.75216 54.8784 2.36731C55.5037 2.13594 56.1543 2.40396 56.4246 3.00186C56.6995 3.61121 56.8324 4.57793 56.8324 5.96157C56.8347 8.52727 56.3147 11.5717 55.9757 12.1994C55.8955 12.3483 55.7466 12.4422 55.5793 12.4468C55.5771 12.4491 55.5679 12.4491 55.561 12.4491ZM50.7618 6.11964C50.8786 6.21585 51.0344 6.33268 51.181 6.44264C51.7102 6.84582 52.512 7.45288 53.3183 8.2707C54.2209 9.18702 54.9173 10.2935 55.38 11.0265C55.3938 11.0494 55.4098 11.0746 55.4236 11.0975C55.6687 10.0094 55.9711 7.90417 55.9711 5.96615C55.9711 4.72683 55.8588 3.85175 55.6389 3.3638C55.5404 3.14389 55.3388 3.12785 55.1853 3.18512C54.3332 3.49667 51.8247 5.03609 50.7618 6.11964Z" fill="#000072"/>
<path d="M35.5484 38.8804C32.6024 38.6788 29.6931 38.1084 26.9052 37.1234L27.4916 36.7156V36.7248V37.3525C26.1721 36.8806 24.871 36.3147 23.6935 35.5336C22.6947 34.8761 21.7898 34.0743 20.9972 33.1786L20.9881 33.1672L20.9835 33.1626C21.0178 33.1947 21.0499 33.229 21.0912 33.2496L20.9789 33.158L20.4154 32.4662L20.436 32.4914L20.4314 32.4868L21.1095 31.9141L21.6616 32.5899L20.9652 33.1397C20.6353 32.7205 20.3214 32.299 19.9022 32.0103C19.7717 31.921 19.6571 31.8774 19.5678 31.8797C19.5036 31.8774 19.4372 31.8912 19.3708 31.8935C18.6262 31.9691 17.5175 31.7446 17.5198 30.7962C17.5152 30.4342 17.6618 30.0975 17.7809 29.7997C17.978 29.3324 18.2047 28.8925 18.333 28.4069L18.3399 28.3771L18.3422 28.3634L18.3445 28.3565L18.3399 28.3817C18.2872 28.6955 18.6331 28.9635 18.9286 28.8101L18.9126 28.8192L18.8782 28.8353L18.8095 28.8673C17.9871 29.2407 16.3011 29.9555 16.0285 28.6062C15.9941 28.203 16.143 27.9075 16.2415 27.5753C16.521 26.7758 16.828 26.0107 16.9929 25.1929C17.1876 24.1735 17.3686 23.138 17.5679 22.1186C17.7328 21.2894 17.9298 20.2264 18.1269 19.5117C18.6079 17.7524 19.1646 16.0297 19.971 14.3803L19.9503 14.7537C18.8462 11.6955 18.0742 3.8495 19.6731 1.04327C19.7808 0.860005 19.9228 0.683613 20.0763 0.523257L20.129 0.479732L20.2367 0.392681C21.1576 -0.253324 22.4038 0.0307352 23.3774 0.305631C25.7713 1.06847 28.3736 2.58956 30.1902 4.33057L29.6496 4.2229C30.3941 3.91593 31.1546 3.68685 31.9175 3.49443C33.4409 3.11644 34.9894 2.89653 36.5449 2.74762C37.3329 2.6789 38.0935 2.62163 38.8953 2.61018C39.6947 2.61934 40.4553 2.6789 41.2456 2.74762C43.5891 2.98129 45.9372 3.33636 48.1432 4.22061L47.598 4.32828C48.3677 3.56773 49.2222 2.94692 50.1202 2.36506C51.7833 1.31358 55.751 -0.890167 57.5561 0.3881C58.7863 1.35482 58.9466 3.96404 59.0131 5.40724C59.0772 7.50791 58.9191 9.59254 58.5916 11.6634C58.4152 12.7149 58.2136 13.7412 57.847 14.7583L57.8264 14.378C58.6328 16.0297 59.1917 17.7501 59.6728 19.5117C59.7622 19.8484 59.8148 20.0729 59.8927 20.4372C60.1928 21.9033 60.4906 23.4542 60.7541 24.9249C60.8457 25.4655 60.9969 25.9809 61.1779 26.5055C61.297 26.8583 61.4299 27.2065 61.5604 27.5776C61.7299 28.0404 61.9613 28.7184 61.5215 29.1422C60.8594 29.7539 59.5949 29.1583 58.9123 28.849L58.8779 28.833L58.8619 28.8238C58.9123 28.849 58.9833 28.8696 59.0566 28.8673C59.1917 28.8673 59.3155 28.7963 59.3888 28.6955C59.4758 28.5993 59.4758 28.4412 59.4598 28.3656L59.4621 28.3794L59.4689 28.4069L59.5033 28.526C59.8034 29.6004 61.1275 31.2589 59.43 31.8225C59.0176 31.9416 58.6465 31.9301 58.2411 31.8912C58.2273 31.8935 58.2136 31.8912 58.1998 31.8912C58.1311 31.8958 58.0143 31.9416 57.8951 32.0218C57.4736 32.3104 57.1644 32.7319 56.8345 33.1488L56.1198 32.5853L56.6719 31.9095L57.366 32.496C57.3522 32.5097 57.3843 32.4731 57.382 32.4731L56.8162 33.1649L56.6994 33.2611C56.7429 33.2405 56.7772 33.2061 56.8116 33.1717L56.807 33.1763C55.2309 34.9975 53.1349 36.3285 50.8876 37.1463L50.2828 37.3708V36.7248V36.7156L50.8853 37.1348C48.7869 37.8725 46.6382 38.4085 44.4344 38.6788C43.7059 38.775 42.9752 38.8484 42.2375 38.8804C41.9695 38.885 41.926 38.5093 42.1803 38.4498L44.3107 37.9824C45.5523 37.7098 47.3162 37.3089 48.5212 36.9447C49.4169 36.695 50.3126 36.3949 51.1785 36.0788V36.7156V36.7248L50.5738 36.3056C51.7696 35.8589 52.9127 35.2839 53.9527 34.5531C54.7338 33.9827 55.46 33.3321 56.0992 32.6059C56.1404 32.5532 56.1931 32.5051 56.2504 32.4708L56.1335 32.567L56.6558 31.9256L56.6764 31.9004L56.681 31.8958L57.3751 32.4822L56.8231 33.158L56.1083 32.5945C56.6306 31.9508 57.2102 31.094 58.1334 30.9772C58.3304 30.968 58.532 31.0069 58.7267 31.0001C58.8848 30.9978 59.0428 30.9795 59.1643 30.9428C59.2903 30.9084 59.359 30.8443 59.3544 30.842C59.3865 30.6221 59.2582 30.3907 59.1711 30.1548C58.9581 29.6645 58.713 29.1628 58.5732 28.6383C58.4129 28.1778 58.8779 27.77 59.3086 28.0152L59.3681 28.0449L59.4896 28.0999C59.9179 28.2763 60.399 28.5008 60.8572 28.471C60.8961 28.4642 60.8938 28.455 60.8709 28.4756C60.848 28.4985 60.8457 28.5237 60.8503 28.4985C60.8274 28.3221 60.7564 28.0862 60.6808 27.8777C60.3921 27.0691 60.0645 26.2352 59.8927 25.3784C59.5697 23.7588 59.2215 21.6673 58.8435 20.0661C58.3694 18.2724 57.7898 16.4649 56.9743 14.8041L56.8826 14.6186L56.9536 14.4238C57.9685 11.597 58.6901 4.13356 57.2812 1.54037C57.2217 1.46019 57.1713 1.36169 57.1048 1.29984L57.059 1.24715L57.0361 1.22195C56.9949 1.19904 56.9697 1.15781 56.9239 1.13948C56.8872 1.12345 56.8574 1.09825 56.8162 1.0845L56.6925 1.03869C54.9904 0.67445 52.1017 2.2803 50.6494 3.19891C49.7055 3.80597 48.8213 4.47718 48.063 5.26292C46.59 4.63066 45.0002 4.26872 43.4104 4.0236C41.9237 3.79681 40.3934 3.6502 38.893 3.61584C38.1553 3.62729 37.3787 3.67998 36.6342 3.74412C34.3984 3.96175 32.1191 4.30079 30.0276 5.13235L29.7206 5.25834C28.2636 3.77161 26.3852 2.61934 24.4861 1.75571C23.5583 1.35482 21.6639 0.610308 20.8094 1.16468C20.7956 1.17614 20.7819 1.18759 20.7659 1.19904L20.7429 1.21508L20.72 1.24257L20.6742 1.29526C20.4291 1.57932 20.2825 1.95959 20.1657 2.31924C19.2791 5.35914 19.79 11.6176 20.8941 14.6163C20.2321 15.9174 19.7327 17.3263 19.3066 18.7305C19.1692 19.1681 19.0432 19.6492 18.9263 20.0959C18.8485 20.3982 18.7568 20.8747 18.6881 21.1817C18.4659 22.2538 18.1154 24.1483 17.9138 25.2273C17.726 26.3062 17.2403 27.3325 16.9448 28.3656C16.9242 28.4412 16.9265 28.4962 16.9242 28.4985C16.9288 28.526 16.9265 28.5031 16.9059 28.4825C16.8852 28.4642 16.8852 28.4733 16.9242 28.4802C17.1281 28.5054 17.3319 28.4504 17.5542 28.3886C17.8428 28.3038 18.1406 28.1824 18.4178 28.0518C18.5255 28.0014 18.6148 27.9464 18.7477 27.951C19.0798 27.951 19.3043 28.2992 19.2104 28.5947C19.0455 29.2934 18.6354 29.9463 18.4361 30.6175C18.4201 30.6862 18.4109 30.7481 18.4109 30.7893C18.4109 30.8306 18.4201 30.8466 18.4201 30.8466C18.4178 30.8535 18.4888 30.9176 18.6171 30.952C18.8622 31.023 19.1783 31.0207 19.4441 30.9909C19.5128 30.9863 19.5815 30.984 19.6502 30.9886C20.5666 31.1054 21.1484 31.9599 21.6661 32.6036L20.9697 33.1534L20.4177 32.4776L21.0957 31.9049L21.1003 31.9095L21.1209 31.9347L21.6432 32.5784L21.531 32.4868C21.6318 32.5441 21.7051 32.654 21.7853 32.7365C23.2491 34.3813 25.1459 35.5633 27.2076 36.3216L26.6211 36.7294V36.7202V36.0994C27.4802 36.4155 28.3759 36.7133 29.2601 36.9676C30.653 37.38 32.048 37.7098 33.4706 38.0076C34.1808 38.1611 34.8932 38.3077 35.6057 38.4543C35.8668 38.5047 35.8164 38.8942 35.5484 38.8804Z" fill="#000072"/>
<path d="M50.1471 30.6679C51.2984 30.6679 52.2318 30.2197 52.2318 29.6669C52.2318 29.114 51.2984 28.6658 50.1471 28.6658C48.9958 28.6658 48.0625 29.114 48.0625 29.6669C48.0625 30.2197 48.9958 30.6679 50.1471 30.6679Z" fill="#FF7687"/>
<path d="M27.6217 30.6679C28.773 30.6679 29.7064 30.2197 29.7064 29.6669C29.7064 29.114 28.773 28.6658 27.6217 28.6658C26.4704 28.6658 25.5371 29.114 25.5371 29.6669C25.5371 30.2197 26.4704 30.6679 27.6217 30.6679Z" fill="#FF7687"/>
<path d="M35.7686 28.1114C35.7686 28.1114 36.3161 29.5477 37.5966 29.2156C39.0536 28.8376 38.8795 27.0989 38.8795 27.0989" fill="white"/>
<path d="M42.0432 28.1114C42.0432 28.1114 41.4957 29.5477 40.2151 29.2156C38.7582 28.8376 38.9323 27.0989 38.9323 27.0989" fill="white"/>
<path d="M31.2121 27.4745C32.6215 27.4745 33.7641 25.6468 33.7641 23.3923C33.7641 21.1377 32.6215 19.3101 31.2121 19.3101C29.8027 19.3101 28.6602 21.1377 28.6602 23.3923C28.6602 25.6468 29.8027 27.4745 31.2121 27.4745Z" fill="#000072"/>
<path d="M32.7745 22.5274C32.8503 21.8116 32.5446 21.1924 32.0917 21.1444C31.6387 21.0964 31.2101 21.6379 31.1343 22.3537C31.0585 23.0696 31.3642 23.6888 31.8171 23.7367C32.2701 23.7847 32.6987 23.2433 32.7745 22.5274Z" fill="white"/>
<g opacity="0.35">
<path d="M30.6398 26.4991C30.8809 26.3817 30.9111 25.9471 30.7072 25.5286C30.5033 25.11 30.1426 24.8659 29.9014 24.9834C29.6603 25.1008 29.6301 25.5354 29.834 25.9539C30.0379 26.3725 30.3986 26.6166 30.6398 26.4991Z" fill="white"/>
</g>
<path d="M46.5305 27.4745C47.9399 27.4745 49.0824 25.6468 49.0824 23.3923C49.0824 21.1377 47.9399 19.3101 46.5305 19.3101C45.1211 19.3101 43.9785 21.1377 43.9785 23.3923C43.9785 25.6468 45.1211 27.4745 46.5305 27.4745Z" fill="#000072"/>
<path d="M45.9217 23.7324C46.3746 23.6845 46.6803 23.0653 46.6045 22.3494C46.5287 21.6336 46.1001 21.0921 45.6472 21.1401C45.1943 21.188 44.8886 21.8072 44.9644 22.5231C45.0402 23.2389 45.4688 23.7804 45.9217 23.7324Z" fill="white"/>
<g opacity="0.35">
<path d="M47.9074 25.9626C48.1113 25.5441 48.0811 25.1095 47.84 24.9921C47.5988 24.8746 47.2381 25.1187 47.0342 25.5373C46.8303 25.9559 46.8605 26.3904 47.1016 26.5078C47.3428 26.6253 47.7035 26.3812 47.9074 25.9626Z" fill="white"/>
</g>
<g opacity="0.3">
<path d="M35.651 57.1541C34.3636 58.1735 31.1794 57.9834 29.0031 55.4177C28.1303 54.3891 27.4202 51.8944 27.0605 50.0297L31.9285 45.6154C32.2148 47.6588 33.2526 49.2371 34.3247 50.5681C36.407 53.1544 38.6131 54.8129 35.651 57.1541Z" fill="#000072"/>
</g>
<g opacity="0.3">
<path d="M40.9133 57.1541C42.2008 58.1735 45.385 57.9834 47.5612 55.4177C48.434 54.3891 49.1442 51.8944 49.5038 50.0297L44.6359 45.6154C44.3495 47.6588 43.3118 49.2371 42.2397 50.5681C40.1574 53.1544 37.9513 54.8129 40.9133 57.1541Z" fill="#000072"/>
</g>
<path d="M35.651 55.3078C34.3636 56.3272 31.1794 56.137 29.0031 53.5714C28.1303 52.5428 27.4202 51.1339 27.0605 49.2669L31.9285 43.7667C32.2148 45.8101 33.2526 47.3885 34.3247 48.7194C36.407 51.3103 38.6131 52.9666 35.651 55.3078Z" fill="#BFBFBF"/>
<path d="M35.6518 55.3077C34.3644 56.3271 31.1802 56.137 29.0039 53.5713C29.3246 51.4798 32.0255 48.9691 34.3254 48.7217C36.4078 51.3103 38.6138 52.9665 35.6518 55.3077Z" fill="white"/>
<g opacity="0.3">
<path d="M35.6519 55.3078C34.3645 56.3272 31.1803 56.137 29.004 53.5713C28.2755 52.7123 27.6616 51.5898 27.2676 50.1558C27.5952 50.8522 27.9846 51.4501 28.4107 51.9517C30.5869 54.5174 33.7712 54.7076 35.0586 53.6882C36.0963 52.8681 36.4995 52.1304 36.4949 51.4088C37.3425 52.6985 37.4639 53.876 35.6519 55.3078Z" fill="#000072"/>
</g>
<path d="M32.2498 43.7232C32.669 45.7941 33.8442 47.5305 35.2256 49.1089C37.0445 51.2026 38.9069 53.1613 36.1579 55.5048C35.3561 56.2355 34.2039 56.4325 33.1615 56.3295C29.6864 55.9996 26.9787 52.6894 26.8458 49.3059C26.8389 49.063 27.178 48.9897 27.2696 49.2142C27.4712 49.7159 27.6338 50.2153 27.8446 50.6941C28.5799 52.5748 29.8765 54.325 31.8146 55.042C32.8981 55.4521 34.2428 55.6262 35.2645 54.9939C35.4386 54.8725 35.6562 54.6824 35.8189 54.5266C36.5382 53.8554 36.8703 53.0857 36.403 52.1671C35.9563 51.2691 35.1981 50.4765 34.5452 49.6838C33.1318 48.0345 31.7527 46.0667 31.6061 43.8102C31.5832 43.4162 32.1605 43.3269 32.2498 43.7232Z" fill="#000072"/>
<path d="M40.9133 55.3078C42.2008 56.3272 45.385 56.1371 47.5612 53.5714C48.434 52.5428 49.1442 51.134 49.5038 49.267L44.6359 43.769C44.3495 45.8124 43.3118 47.3908 42.2397 48.7218C40.1574 51.3104 37.9513 52.9666 40.9133 55.3078Z" fill="#BFBFBF"/>
<path d="M40.9133 55.3077C42.2008 56.3271 45.385 56.137 47.5612 53.5713C47.2405 51.4798 44.5397 48.9691 42.2397 48.7217C40.1574 51.3103 37.9513 52.9665 40.9133 55.3077Z" fill="white"/>
<path d="M44.9587 43.8147C44.7778 46.6622 42.7137 48.8499 40.9934 50.9185C39.8067 52.4075 39.3967 53.4292 41.0186 54.7808C42.0219 55.6719 43.5728 55.4887 44.748 55.0442C46.686 54.3249 47.9826 52.577 48.7179 50.6963C48.9264 50.2198 49.089 49.7227 49.2883 49.2256C49.3296 49.1088 49.4624 49.0492 49.577 49.095C49.6663 49.1317 49.7167 49.2164 49.7144 49.3081C49.6709 50.4145 49.3594 51.5187 48.8142 52.5083C47.7375 54.5174 45.733 56.1209 43.3987 56.3294C41.6875 56.4852 40.5031 55.9216 39.4975 54.5265C38.446 53.0306 39.2753 51.5622 40.2832 50.3481C41.2957 49.1179 42.4205 47.9473 43.1994 46.582C43.7194 45.6909 44.0974 44.7333 44.3127 43.7208C44.4021 43.3337 44.9816 43.4093 44.9587 43.8147Z" fill="#000072"/>
<path d="M41.3006 28.1824C41.3006 28.1824 41.2525 29.2728 40.8562 30.3747C40.7714 30.6106 40.6546 30.8168 40.5148 30.9909C39.7131 31.9851 38.1393 31.9851 37.3375 30.9909C37.1978 30.8168 37.0809 30.6106 36.9962 30.3747C36.6022 29.2728 36.5518 28.1824 36.5518 28.1824H41.3006Z" fill="#000072"/>
<path d="M40.5152 30.9909C39.7134 31.9851 38.1397 31.9851 37.3379 30.9909C38.1374 29.9967 39.7134 29.9967 40.5152 30.9909Z" fill="#F27E80"/>
<path d="M38.925 32.1844C37.8574 32.1844 36.9343 31.5338 36.5746 30.5258C36.1623 29.3735 36.1073 28.2511 36.105 28.2029C36.0935 27.9578 36.2837 27.7494 36.5311 27.7379C36.7762 27.7287 36.9847 27.9166 36.9961 28.164C36.9961 28.1732 37.0488 29.204 37.4153 30.2257C37.6971 31.0115 38.3798 31.2932 38.9273 31.2932C39.4748 31.2932 40.1551 31.0138 40.4392 30.2257C40.8057 29.204 40.8561 28.1732 40.8584 28.164C40.8698 27.9189 41.0783 27.7265 41.3234 27.7379C41.5685 27.7494 41.7587 27.9578 41.7495 28.2029C41.7472 28.2511 41.6922 29.3735 41.2799 30.5258C40.9157 31.5338 39.9925 32.1844 38.925 32.1844Z" fill="#000072"/>
<g opacity="0.25">
<path d="M42.0424 28.7001C42.0424 28.7001 41.4949 30.1364 40.2144 29.8042C38.7574 29.4263 38.9544 28.7253 38.8903 28.7253C38.8261 28.7253 39.0529 29.4263 37.5937 29.8042C36.3131 30.1364 35.7656 28.7001 35.7656 28.7001C35.7656 28.7001 35.7404 25.1425 38.8903 25.1425C42.0401 25.1425 42.0424 28.7001 42.0424 28.7001Z" fill="#6B184E"/>
</g>
<path d="M42.043 28.1114C42.043 28.1114 41.4955 29.5478 40.215 29.2156C38.758 28.8376 38.9321 27.0989 38.9321 27.0989H38.8771C38.8771 27.0989 39.0512 28.8376 37.5943 29.2156C36.3137 29.5478 35.7662 28.1114 35.7662 28.1114C35.7662 28.1114 33.9038 24.5538 38.8909 24.5538C43.878 24.5538 42.043 28.1114 42.043 28.1114Z" fill="white"/>
<g opacity="0.25">
<path d="M42.0223 28.1572C41.917 28.4 41.358 29.511 40.2149 29.2155C38.7556 28.8375 38.932 27.0988 38.932 27.0988H38.8794C38.8794 27.0988 39.0535 28.8375 37.5965 29.2155C36.4534 29.511 35.8944 28.4 35.7891 28.1572C36.1487 28.4 36.6206 28.5397 37.2139 28.3862C39.097 27.8983 38.8702 25.6533 38.8702 25.6533H38.9412C38.9412 25.6533 38.7144 27.8983 40.5975 28.3862C41.1908 28.542 41.6627 28.4023 42.0223 28.1572Z" fill="#000072"/>
</g>
<path d="M35.9698 28.0358C36.3318 28.6428 36.9182 29.1422 37.649 28.849C38.366 28.6245 38.634 27.7907 38.6638 27.1034C38.6707 26.9843 38.7738 26.8927 38.8929 26.8973C39.1518 26.9179 39.1105 27.2455 39.1289 27.4264C39.1334 27.7792 39.0853 28.1251 38.941 28.4573C38.7142 29.0323 38.1369 29.479 37.5161 29.5683C36.7464 29.7287 35.9973 29.2018 35.6949 28.5214C35.6148 28.345 35.4338 28.0152 35.7156 27.9212C35.8186 27.8892 35.9217 27.9419 35.9698 28.0358Z" fill="#000072"/>
<path d="M42.2469 28.1892C41.9583 29.2018 40.9733 29.8913 39.9355 29.4698C38.9596 29.1445 38.5519 28.022 38.7191 27.0782C38.7649 26.8262 39.136 26.8491 39.1498 27.1034C39.1773 27.7906 39.4476 28.6245 40.1646 28.849C40.9045 29.1445 41.4956 28.6291 41.8575 28.0128C41.9858 27.8021 42.3157 27.9533 42.2469 28.1892Z" fill="#000072"/>
<path d="M40.6614 25.9672C40.6614 26.3795 40.1253 26.9637 39.6328 27.2088C39.1174 27.4677 38.5401 27.4677 38.0247 27.2088C37.5321 26.9614 36.9961 26.3772 36.9961 25.9672C36.9961 25.225 40.6614 25.225 40.6614 25.9672Z" fill="#000072"/>
<g opacity="0.5">
<path d="M39.5549 25.9466C39.5549 26.0657 39.3419 26.1688 39.1471 26.2421C38.9433 26.3177 38.7142 26.3177 38.5103 26.2421C38.3156 26.1711 38.1025 26.0657 38.1025 25.9466C38.1025 25.587 39.5549 25.587 39.5549 25.9466Z" fill="white"/>
</g>
<path d="M29.6403 15.4733C30.4398 14.683 31.796 14.5089 32.7238 15.1733C32.8543 15.258 32.9643 15.368 33.0788 15.4711C33.2209 15.6039 33.2277 15.8261 33.0949 15.9682C32.9872 16.085 32.8177 16.1102 32.6825 16.0438C32.6138 16.0094 32.5405 15.9727 32.4741 15.9361C32.2335 15.7986 31.9655 15.7093 31.6929 15.6635C31.1156 15.581 30.5338 15.7918 30.0206 16.0438C29.6655 16.1949 29.3677 15.7391 29.6403 15.4733Z" fill="#000072"/>
<path d="M47.6944 16.0183C46.8216 15.567 46.0083 15.4982 45.1516 16.0205C44.9706 16.1351 44.7255 16.0824 44.6293 15.8854C44.4758 15.5601 44.8423 15.3471 45.06 15.1752C45.4563 14.9026 45.9442 14.7469 46.4276 14.7606C47.0736 14.7766 47.6783 15.0286 48.1434 15.473C48.4412 15.7915 48.0655 16.2313 47.6944 16.0183Z" fill="#000072"/>
<path d="M33.0306 54.6227C33.4338 54.9343 33.9423 55.1702 34.4486 55.2413C34.6181 55.2687 34.7876 55.2642 34.9526 55.2573C35.5825 55.2596 35.5367 56.1851 34.909 56.1255C34.263 56.0499 33.6628 55.7658 33.1657 55.3581C33.0054 55.2252 32.8611 55.0901 32.7167 54.9228C32.6389 54.8312 32.648 54.696 32.7397 54.6159C32.8244 54.5449 32.9504 54.5517 33.0306 54.6227Z" fill="#000072"/>
<path d="M34.298 53.0239C34.9349 53.4706 35.7206 53.8646 36.511 53.8325C37.1363 53.8256 37.1089 54.7465 36.4835 54.7007C35.7435 54.616 35.0929 54.2563 34.5225 53.8073C34.3416 53.663 34.172 53.5164 34.0048 53.3446C33.9201 53.2598 33.9223 53.1224 34.0071 53.0376C34.0873 52.9574 34.2133 52.9551 34.298 53.0239Z" fill="#000072"/>
<path d="M43.9423 54.9252C43.3765 55.5689 42.609 56.0202 41.7523 56.1256C41.1796 56.1897 41.0605 55.3605 41.6286 55.2619C41.821 55.2528 42.0134 55.2803 42.2104 55.2413C42.7167 55.1726 43.2276 54.9344 43.6284 54.6228C43.8323 54.4418 44.1187 54.719 43.9423 54.9252Z" fill="#000072"/>
<path d="M42.6566 53.3445C41.9762 54.0157 41.1538 54.5792 40.1779 54.7007C39.6052 54.7511 39.5044 53.9218 40.0749 53.8347C40.478 53.8508 40.8904 53.7798 41.2775 53.6217C41.6578 53.4705 42.0449 53.2575 42.3748 53.0169C42.5879 52.8634 42.8398 53.1567 42.6566 53.3445Z" fill="#000072"/>
<g opacity="0.3">
<path d="M40.9132 55.3078C42.2006 56.3272 45.3848 56.137 47.5611 53.5713C48.2896 52.7123 48.9035 51.5898 49.2975 50.1558C48.9699 50.8522 48.5805 51.4501 48.1544 51.9517C45.9782 54.5174 42.7939 54.7076 41.5065 53.6882C40.4688 52.8681 40.0656 52.1304 40.0702 51.4088C39.2226 52.6985 39.1012 53.876 40.9132 55.3078Z" fill="#000072"/>
</g>
<path d="M22.0712 95.35C20.6879 95.35 19.4045 95.1333 18.2212 94.7C17.0545 94.25 16.0379 93.6167 15.1712 92.8C14.3212 91.9833 13.6545 91.025 13.1712 89.925C12.6879 88.8083 12.4462 87.5833 12.4462 86.25C12.4462 84.9167 12.6879 83.7 13.1712 82.6C13.6545 81.4833 14.3212 80.5167 15.1712 79.7C16.0379 78.8833 17.0545 78.2583 18.2212 77.825C19.4045 77.375 20.6879 77.15 22.0712 77.15C23.6879 77.15 25.1295 77.4333 26.3962 78C27.6795 78.5667 28.7462 79.3833 29.5962 80.45L26.4462 83.3C25.8795 82.6333 25.2545 82.125 24.5712 81.775C23.9045 81.425 23.1545 81.25 22.3212 81.25C21.6045 81.25 20.9462 81.3667 20.3462 81.6C19.7462 81.8333 19.2295 82.175 18.7962 82.625C18.3795 83.0583 18.0462 83.5833 17.7962 84.2C17.5629 84.8167 17.4462 85.5 17.4462 86.25C17.4462 87 17.5629 87.6833 17.7962 88.3C18.0462 88.9167 18.3795 89.45 18.7962 89.9C19.2295 90.3333 19.7462 90.6667 20.3462 90.9C20.9462 91.1333 21.6045 91.25 22.3212 91.25C23.1545 91.25 23.9045 91.075 24.5712 90.725C25.2545 90.375 25.8795 89.8667 26.4462 89.2L29.5962 92.05C28.7462 93.1 27.6795 93.9167 26.3962 94.5C25.1295 95.0667 23.6879 95.35 22.0712 95.35ZM29.4103 95L37.1353 77.5H42.0103L49.7603 95H44.6103L38.5603 79.925H40.5103L34.4603 95H29.4103ZM33.6353 91.6L34.9103 87.95H43.4603L44.7353 91.6H33.6353ZM54.0097 95V81.425H48.6347V77.5H64.3097V81.425H58.9597V95H54.0097ZM7.94834 116.35C6.51501 116.35 5.13167 116.175 3.79834 115.825C2.48167 115.458 1.40667 114.992 0.57334 114.425L2.19834 110.775C2.98167 111.275 3.88167 111.692 4.89834 112.025C5.93167 112.342 6.95667 112.5 7.97334 112.5C8.65667 112.5 9.20667 112.442 9.62334 112.325C10.04 112.192 10.34 112.025 10.5233 111.825C10.7233 111.608 10.8233 111.358 10.8233 111.075C10.8233 110.675 10.64 110.358 10.2733 110.125C9.90667 109.892 9.43167 109.7 8.84834 109.55C8.26501 109.4 7.61501 109.25 6.89834 109.1C6.19834 108.95 5.49001 108.758 4.77334 108.525C4.07334 108.292 3.43167 107.992 2.84834 107.625C2.26501 107.242 1.79001 106.75 1.42334 106.15C1.05667 105.533 0.87334 104.758 0.87334 103.825C0.87334 102.775 1.15667 101.825 1.72334 100.975C2.30667 100.125 3.17334 99.4417 4.32334 98.925C5.47334 98.4083 6.90667 98.15 8.62334 98.15C9.77334 98.15 10.8983 98.2833 11.9983 98.55C13.115 98.8 14.1067 99.175 14.9733 99.675L13.4483 103.35C12.615 102.9 11.79 102.567 10.9733 102.35C10.1567 102.117 9.36501 102 8.59834 102C7.91501 102 7.36501 102.075 6.94834 102.225C6.53167 102.358 6.23167 102.542 6.04834 102.775C5.86501 103.008 5.77334 103.275 5.77334 103.575C5.77334 103.958 5.94834 104.267 6.29834 104.5C6.66501 104.717 7.14001 104.9 7.72334 105.05C8.32334 105.183 8.97334 105.325 9.67334 105.475C10.39 105.625 11.0983 105.817 11.7983 106.05C12.515 106.267 13.165 106.567 13.7483 106.95C14.3317 107.317 14.7983 107.808 15.1483 108.425C15.515 109.025 15.6983 109.783 15.6983 110.7C15.6983 111.717 15.4067 112.658 14.8233 113.525C14.2567 114.375 13.3983 115.058 12.2483 115.575C11.115 116.092 9.68167 116.35 7.94834 116.35ZM29.6849 98.5H34.6349V116H29.6849V98.5ZM22.9349 116H17.9849V98.5H22.9349V116ZM30.0349 109.175H22.5849V105.075H30.0349V109.175ZM46.9515 116.35C45.5515 116.35 44.2598 116.125 43.0765 115.675C41.8931 115.225 40.8598 114.592 39.9765 113.775C39.1098 112.942 38.4348 111.975 37.9515 110.875C37.4681 109.775 37.2265 108.567 37.2265 107.25C37.2265 105.933 37.4681 104.725 37.9515 103.625C38.4348 102.525 39.1098 101.567 39.9765 100.75C40.8598 99.9167 41.8931 99.275 43.0765 98.825C44.2598 98.375 45.5515 98.15 46.9515 98.15C48.3681 98.15 49.6598 98.375 50.8265 98.825C52.0098 99.275 53.0348 99.9167 53.9015 100.75C54.7681 101.567 55.4431 102.525 55.9265 103.625C56.4265 104.725 56.6765 105.933 56.6765 107.25C56.6765 108.567 56.4265 109.783 55.9265 110.9C55.4431 112 54.7681 112.958 53.9015 113.775C53.0348 114.592 52.0098 115.225 50.8265 115.675C49.6598 116.125 48.3681 116.35 46.9515 116.35ZM46.9515 112.25C47.6181 112.25 48.2348 112.133 48.8015 111.9C49.3848 111.667 49.8848 111.333 50.3015 110.9C50.7348 110.45 51.0681 109.917 51.3015 109.3C51.5515 108.683 51.6765 108 51.6765 107.25C51.6765 106.483 51.5515 105.8 51.3015 105.2C51.0681 104.583 50.7348 104.058 50.3015 103.625C49.8848 103.175 49.3848 102.833 48.8015 102.6C48.2348 102.367 47.6181 102.25 46.9515 102.25C46.2848 102.25 45.6598 102.367 45.0765 102.6C44.5098 102.833 44.0098 103.175 43.5765 103.625C43.1598 104.058 42.8265 104.583 42.5765 105.2C42.3431 105.8 42.2265 106.483 42.2265 107.25C42.2265 108 42.3431 108.683 42.5765 109.3C42.8265 109.917 43.1598 110.45 43.5765 110.9C44.0098 111.333 44.5098 111.667 45.0765 111.9C45.6598 112.133 46.2848 112.25 46.9515 112.25ZM59.269 116V98.5H67.269C68.869 98.5 70.244 98.7583 71.394 99.275C72.5607 99.7917 73.4607 100.542 74.094 101.525C74.7274 102.492 75.044 103.642 75.044 104.975C75.044 106.292 74.7274 107.433 74.094 108.4C73.4607 109.367 72.5607 110.117 71.394 110.65C70.244 111.167 68.869 111.425 67.269 111.425H62.019L64.219 109.275V116H59.269ZM64.219 109.8L62.019 107.525H66.969C68.0024 107.525 68.769 107.3 69.269 106.85C69.7857 106.4 70.044 105.775 70.044 104.975C70.044 104.158 69.7857 103.525 69.269 103.075C68.769 102.625 68.0024 102.4 66.969 102.4H62.019L64.219 100.125V109.8Z" fill="#FF708F"/>
</svg>
