<svg width="98" height="44" viewBox="0 0 98 44" fill="none" xmlns="http://www.w3.org/2000/svg">
<g opacity="0.2">
<path d="M15.5694 43.5672C24.1681 43.5672 31.1388 42.7229 31.1388 41.6814C31.1388 40.6399 24.1681 39.7955 15.5694 39.7955C6.97065 39.7955 0 40.6399 0 41.6814C0 42.7229 6.97065 43.5672 15.5694 43.5672Z" fill="#000072"/>
</g>
<path d="M23.1084 33.7939C23.1084 33.7939 27.4312 33.6122 27.2555 31.2124C27.0201 28.0113 23.5955 26.2744 23.7087 22.4431C23.9024 15.8933 36.0173 15.6014 36.2006 23.5976C36.2512 25.829 35.1683 26.5708 34.1762 26.6066C32.627 26.6632 31.8152 25.467 31.6155 23.9089C31.2491 21.0608 27.2614 21.1963 27.0112 23.9149C26.8071 26.121 31.9865 29.6081 30.0887 33.5362C28.7793 36.2473 25.6571 36.8044 23.7042 36.6704C23.3095 36.645 23.1084 33.7939 23.1084 33.7939Z" fill="#BFBFBF"/>
<g opacity="0.5">
<path d="M36.1871 24.1576C35.7283 16.5517 24.1883 16.8138 23.7206 23.0553C23.7057 22.8572 23.7012 22.6531 23.7071 22.4431C23.9008 15.8933 36.0158 15.5998 36.199 23.5975C36.2035 23.7971 36.199 23.9833 36.1871 24.1576Z" fill="white"/>
</g>
<g opacity="0.3">
<path d="M23.1992 34.7636C23.2946 35.5933 23.4644 36.6554 23.7027 36.6717C25.6556 36.8058 28.7778 36.2487 30.0872 33.5376C30.7858 32.0927 30.5251 30.7088 29.9293 29.4248C29.9963 30.1383 30.2719 30.9457 29.749 32.0212C28.4441 34.704 25.1551 34.8842 23.1992 34.7636Z" fill="#000072"/>
</g>
<g opacity="0.3">
<path d="M31.6141 23.9104C31.8152 25.467 32.6255 26.6632 34.1747 26.6066C34.8629 26.5827 35.5973 26.2163 35.9638 25.248C35.6062 25.5311 35.1877 25.6562 34.784 25.6711C33.1499 25.7307 32.6702 24.5658 32.4974 22.9183C31.9895 18.0711 23.7102 20.9624 27.5817 25.6502C27.7113 25.8066 27.2242 25.0097 27.0604 24.4809C27.0127 24.2857 26.9933 24.0981 27.0097 23.9178C27.2615 21.1963 31.2477 21.0607 31.6141 23.9104Z" fill="#000072"/>
</g>
<path d="M24.2526 36.9727C24.0336 36.9727 23.8414 36.9638 23.6835 36.9534C23.3767 36.9325 23.1726 36.6569 22.9789 35.2627C22.8791 34.5462 22.8285 33.8445 22.827 33.8148L22.8062 33.5258L23.0966 33.5139C23.1219 33.5124 25.6379 33.3932 26.6121 32.2983C26.8862 31.9915 27.0039 31.6429 26.9741 31.2333C26.8713 29.8435 26.1265 28.7307 25.3385 27.5524C24.3673 26.1016 23.3618 24.6015 23.4258 22.4342C23.5256 19.0349 26.6613 17.2682 29.7105 17.2771C31.4459 17.2831 33.0695 17.8328 34.2821 18.8233C35.6764 19.9629 36.4376 21.6119 36.4822 23.5901C36.5359 25.9586 35.3323 26.8464 34.1868 26.8881C32.6465 26.9462 31.5799 25.8439 31.3356 23.9446C31.1688 22.6516 30.1812 22.0915 29.271 22.1064C28.3683 22.1228 27.4061 22.6963 27.2914 23.9416C27.2228 24.6775 27.9185 25.6964 28.6558 26.7749C29.9637 28.6905 31.5919 31.0754 30.3436 33.6598C29.7239 34.9424 28.6797 35.8749 27.2407 36.435C26.1101 36.8729 25.0152 36.9727 24.2526 36.9727ZM23.8042 36.3948C24.7233 36.4454 28.3713 36.4409 29.8341 33.414C30.9409 31.123 29.4796 28.981 28.1896 27.0922C27.3599 25.8766 26.6434 24.828 26.7298 23.8895C26.8758 22.306 28.1449 21.5627 29.2606 21.5419C30.418 21.5225 31.6842 22.2331 31.8942 23.8731C31.9911 24.6313 32.4097 26.3876 34.1644 26.3235C34.7096 26.3042 35.9713 25.9988 35.9162 23.6035C35.8253 19.6382 32.7329 17.8521 29.7075 17.8417C29.7001 17.8417 29.6911 17.8417 29.6837 17.8417C26.9175 17.8417 24.0783 19.4207 23.9889 22.4505C23.9308 24.4377 24.8842 25.8603 25.8062 27.2366C26.6017 28.4239 27.4224 29.6498 27.5357 31.1901C27.5774 31.7516 27.4076 32.2507 27.0322 32.6722C26.1056 33.712 24.1542 33.9861 23.4109 34.0546C23.4958 35.0526 23.6597 36.1251 23.8042 36.3948Z" fill="#000072"/>
<path d="M26.5564 37.4538H4.59961C4.8871 35.8838 5.30568 34.2795 5.78385 32.7288C6.5078 30.3767 7.37028 28.1512 8.12104 26.3726C8.13743 26.3339 8.15381 26.2952 8.1702 26.2564C8.20446 26.176 8.23872 26.0955 8.27298 26.0166C8.34746 25.8423 8.42045 25.674 8.49195 25.5101C8.59176 25.2807 8.68858 25.0618 8.78094 24.8532C8.84946 24.6998 8.91649 24.5508 8.98204 24.4078C9.06396 24.2276 9.14291 24.0578 9.2159 23.8984C9.65683 22.9465 9.93985 22.3894 9.93985 22.3894H21.2177C21.2177 22.3894 21.2206 22.3969 21.2281 22.4117C21.2519 22.4579 21.3145 22.5816 21.4068 22.7722C21.5677 23.1029 21.8239 23.6362 22.1397 24.3274C22.1517 24.3542 22.1636 24.381 22.177 24.4078C22.2351 24.5374 22.2976 24.673 22.3602 24.813C22.454 25.026 22.5538 25.2495 22.6566 25.4833C22.7266 25.6427 22.7981 25.8066 22.8696 25.9764C22.8845 26.0106 22.8979 26.0434 22.9128 26.0777C22.9322 26.1239 22.9531 26.1715 22.9724 26.2207C23.6353 27.7848 24.395 29.7108 25.0698 31.7739C25.1726 32.0897 25.2739 32.407 25.3737 32.7273C25.8518 34.278 26.2704 35.8838 26.5564 37.4538Z" fill="#BFBFBF"/>
<path d="M15.1386 36.283C17.6996 36.283 19.7758 34.3236 19.7758 31.9065C19.7758 29.4894 17.6996 27.53 15.1386 27.53C12.5776 27.53 10.5015 29.4894 10.5015 31.9065C10.5015 34.3236 12.5776 36.283 15.1386 36.283Z" fill="white"/>
<path d="M26.5578 37.4598H4.60095C4.51753 37.4598 4.43709 37.4226 4.38346 37.3585C4.32984 37.2945 4.30749 37.2096 4.32239 37.1276C5.62728 30.0088 9.64774 22.0662 9.68795 21.9873C9.75797 21.8487 9.92927 21.7936 10.0678 21.8636C10.2063 21.9351 10.2615 22.1049 10.1914 22.2435C10.1527 22.3209 6.29314 29.9462 4.94058 36.8967H26.2166C24.8641 29.9477 21.0045 22.3209 20.9658 22.2435C20.8943 22.1049 20.9509 21.9351 21.0894 21.8636C21.2279 21.7936 21.3978 21.8487 21.4693 21.9873C21.5095 22.0662 25.5299 30.0088 26.8348 37.1276C26.8497 37.2096 26.8274 37.2945 26.7737 37.3585C26.7201 37.4226 26.6412 37.4598 26.5578 37.4598Z" fill="#000072"/>
<path d="M8.60246 35.1852C7.66103 32.5173 3.61526 31.8112 2.55614 36.146C1.74431 39.4678 4.32133 40.232 4.32133 40.232H25.9564C25.9564 40.232 28.5334 39.4678 27.7216 36.146C26.6625 31.8112 22.6167 32.5173 21.6753 35.1852" fill="#BFBFBF"/>
<g opacity="0.5">
<path d="M8.60213 35.1852H8.60958V35.7467H8.60213C7.6607 33.0789 3.61492 32.3728 2.55581 36.7075C2.47388 37.0442 2.42622 37.354 2.40834 37.64C2.37855 37.211 2.41728 36.7165 2.55581 36.146C3.61492 31.8112 7.6607 32.5173 8.60213 35.1852Z" fill="white"/>
</g>
<g opacity="0.5">
<path d="M27.8691 37.64C27.8512 37.354 27.802 37.0442 27.7216 36.7075C26.734 32.6618 23.144 33.0074 21.9032 35.2388C21.8421 35.349 21.6768 35.3073 21.6768 35.1807C22.6212 32.5158 26.664 31.8127 27.7216 36.146C27.8601 36.7165 27.9003 37.211 27.8691 37.64Z" fill="white"/>
</g>
<path d="M8.46835 35.2313C7.58501 33.5361 5.58149 32.614 4.01889 34.0247C3.26217 34.7591 2.8853 35.8256 2.7423 36.8609C2.55908 38.1822 3.09087 39.4335 4.36597 39.9489L4.40023 39.9623L4.31979 39.9504C4.28255 39.9474 26.2692 39.9533 25.9087 39.9489C26.3615 39.7671 26.7697 39.4543 27.0572 39.0611C27.6828 38.2164 27.6545 37.056 27.3759 36.0744C27.1048 35.0719 26.5879 34.0709 25.6391 33.5882C24.1614 32.8375 22.4662 33.8236 21.8063 35.2313C21.772 35.3043 21.6856 35.3341 21.6141 35.2968C21.5545 35.267 21.5248 35.1985 21.5411 35.1359C21.6812 34.5624 21.997 34.0158 22.4468 33.6031C23.9543 32.2223 26.1664 32.5574 27.2687 34.272C27.7662 35.0376 28.0329 35.8942 28.152 36.7849C28.3248 38.0198 27.9301 39.3277 26.8739 40.0695C26.6371 40.2423 26.3764 40.3808 26.1008 40.4792C26.0606 40.4926 26.0055 40.5134 25.9578 40.5119C25.9593 40.5134 4.31979 40.5104 4.31979 40.5119C4.26915 40.5134 4.21701 40.4926 4.17381 40.4792C3.89823 40.3808 3.63755 40.2423 3.4007 40.0695C2.04665 39.1043 1.86194 37.4061 2.29393 35.9105C2.52035 35.0525 2.92701 34.1885 3.59733 33.5689C4.53132 32.684 5.939 32.4949 7.07855 33.0743C7.35561 33.2099 7.61182 33.3842 7.83824 33.5897C8.29406 33.9994 8.61135 34.5535 8.7335 35.1345C8.76776 35.3013 8.54283 35.3758 8.46835 35.2313Z" fill="#000072"/>
<path d="M30.0393 37.2274C29.7429 39.368 28.5974 41.0825 27.2299 41.5041C27.0914 41.5473 26.9543 41.5815 26.8203 41.6083C25.7701 41.8228 24.8719 41.6053 24.4011 41.4862C23.4672 41.2478 22.7968 41.0825 21.8211 40.9738C20.5937 40.8367 18.8777 40.7861 15.5365 40.7861C12.1953 40.7861 10.4793 40.8352 9.25183 40.9738C9.22204 40.9767 9.19076 40.9812 9.16097 40.9842C9.13118 40.9872 9.10138 40.9901 9.07159 40.9946C8.83623 41.0229 8.61875 41.0557 8.40872 41.0929C8.3819 41.0974 8.35658 41.1019 8.33126 41.1063C8.22698 41.1257 8.1242 41.1451 8.02291 41.1659C7.99758 41.1704 7.97226 41.1763 7.94694 41.1808C7.92162 41.1853 7.89629 41.1912 7.87097 41.1972C7.69371 41.2359 7.51644 41.2761 7.33322 41.3208C7.30641 41.3268 7.28108 41.3342 7.25427 41.3402C7.06956 41.3849 6.87889 41.434 6.67332 41.4862C6.21452 41.6039 5.34459 41.8139 4.32719 41.6232C4.31081 41.6202 4.29442 41.6173 4.27803 41.6128C4.13652 41.5845 3.99203 41.5487 3.84456 41.5041C3.39619 41.3655 2.97165 41.0885 2.5918 40.7026C2.14045 40.2438 1.75464 39.6286 1.4731 38.9136C1.42693 38.7989 1.38522 38.6827 1.345 38.5621C1.32563 38.5025 1.30627 38.4414 1.2869 38.3818C1.24966 38.2597 1.2154 38.1361 1.18412 38.0094C1.12156 37.7562 1.07091 37.4955 1.03516 37.2289C0.978555 36.8192 0.9577 36.3083 1.05452 35.8421C1.06793 35.775 1.08432 35.711 1.10368 35.6469C1.11262 35.6156 1.12305 35.5829 1.13347 35.5516C1.15433 35.489 1.17816 35.4279 1.20646 35.3699C1.23328 35.3103 1.26307 35.2537 1.29733 35.1985C1.3301 35.1434 1.36734 35.0913 1.40607 35.0406C1.43735 35.0019 1.46863 34.9662 1.49992 34.9349C1.89317 34.5312 2.31473 34.5893 2.31473 34.5893C2.31473 34.5893 2.3192 34.5789 2.32814 34.561C2.33261 34.5521 2.33857 34.5416 2.34601 34.5282C2.37134 34.485 2.41007 34.4195 2.46071 34.345C2.51136 34.2705 2.57839 34.1886 2.65436 34.1082C2.66479 34.0962 2.67671 34.0858 2.68862 34.0739C2.81524 33.9517 2.97165 33.8385 3.15487 33.7849C3.91308 33.56 4.36592 33.91 4.50446 34.0426C4.50892 34.0471 4.51339 34.0501 4.51637 34.0545C4.52382 34.062 4.52978 34.0679 4.53425 34.0724C4.53872 34.0769 4.5417 34.0813 4.54467 34.0843C4.54616 34.0873 4.54765 34.0888 4.54765 34.0888C4.54765 34.0888 5.06157 33.6955 5.69316 33.8281C5.71253 33.8326 5.73189 33.837 5.75126 33.8415C5.76466 33.8445 5.77807 33.8475 5.79148 33.8519C5.79594 33.8519 5.79892 33.8534 5.80339 33.8549C5.82276 33.8594 5.84212 33.8653 5.86149 33.8713C5.88383 33.8788 5.90469 33.8862 5.92703 33.8936C5.93001 33.8951 5.93299 33.8951 5.93597 33.8966C5.9464 33.8996 5.95682 33.9041 5.96725 33.91C6.01492 33.9279 6.0611 33.9503 6.10578 33.9741C6.12962 33.9875 6.15345 33.9994 6.17728 34.0143C6.20112 34.0277 6.22346 34.0411 6.24581 34.056C6.25176 34.059 6.25623 34.0635 6.2607 34.0664C6.28007 34.0799 6.29943 34.0933 6.31731 34.1067C6.36349 34.1394 6.40817 34.1752 6.45137 34.2139C6.46031 34.2214 6.46925 34.2288 6.47819 34.2363C6.49606 34.2512 6.51245 34.2675 6.53032 34.2839C6.56905 34.3212 6.60629 34.3599 6.64204 34.4016C6.65247 34.4135 6.6629 34.424 6.67183 34.4359C6.70163 34.4701 6.73142 34.5074 6.75972 34.5446C6.77909 34.5699 6.79696 34.5938 6.81484 34.6206C6.84761 34.6668 6.88038 34.7159 6.91166 34.7666C6.93252 34.8008 6.95337 34.8336 6.97273 34.8693C6.99061 34.9021 7.00997 34.9349 7.02785 34.9691C7.03083 34.9736 7.03232 34.9781 7.0353 34.9826C7.07254 35.0541 7.10829 35.1285 7.14255 35.2045C7.17681 35.2835 7.20958 35.3654 7.24235 35.4488C7.25725 35.4905 7.27363 35.5337 7.28853 35.5784C7.30343 35.6216 7.31683 35.6648 7.33173 35.7095V35.711C7.38387 35.8793 7.43004 36.058 7.47026 36.2428C7.47026 36.2457 7.47175 36.2487 7.47175 36.2532C7.47622 36.274 7.48069 36.2949 7.48516 36.3172C7.48963 36.3381 7.49261 36.3575 7.49708 36.3783C7.54027 36.5973 7.57454 36.8267 7.59986 37.065H23.4716C23.497 36.8237 23.5312 36.5928 23.5759 36.3724C23.8485 34.9796 24.4652 34.0203 25.3813 33.8296C26.0129 33.697 26.5268 34.0903 26.5268 34.0903C26.5268 34.0903 26.9975 33.5123 27.9211 33.7849C28.4529 33.9428 28.7612 34.5878 28.7612 34.5878C28.7612 34.5878 29.2528 34.5193 29.6699 35.0392C30.1302 35.6156 30.1317 36.5571 30.0393 37.2274Z" fill="#BFBFBF"/>
<path d="M30.0393 37.2274C29.7429 39.368 28.5974 41.0825 27.2299 41.504C27.0914 41.5472 26.9543 41.5815 26.8203 41.6083C25.7701 41.8228 24.8719 41.6053 24.4011 41.4862C23.4672 41.2478 22.7968 41.0825 21.8211 40.9737C20.5937 40.8367 18.8777 40.7861 15.5365 40.7861C12.1953 40.7861 10.4793 40.8352 9.25183 40.9737C9.22204 40.9767 9.19076 40.9812 9.16097 40.9842C9.13118 40.9872 9.10138 40.9916 9.07159 40.9946C8.83623 41.0229 8.61875 41.0557 8.40872 41.0929C8.3819 41.0974 8.35658 41.1019 8.33126 41.1063C8.22698 41.1257 8.1242 41.1451 8.02291 41.1659C7.99758 41.1704 7.97226 41.1763 7.94694 41.1808C7.92162 41.1868 7.89629 41.1912 7.87097 41.1972C7.69371 41.2359 7.51644 41.2761 7.33322 41.3208C7.30641 41.3268 7.28108 41.3342 7.25427 41.3402C7.06956 41.3849 6.87889 41.434 6.67332 41.4862C6.21452 41.6038 5.34459 41.8139 4.32719 41.6232C4.31081 41.6202 4.29442 41.6173 4.27803 41.6143C4.13652 41.586 3.99203 41.5502 3.84456 41.5055C3.39619 41.367 2.97165 41.0899 2.5918 40.7041C2.14045 40.2438 1.75613 39.6301 1.4731 38.9151C1.42842 38.8004 1.38522 38.6842 1.345 38.5636C1.32563 38.504 1.30627 38.4429 1.2869 38.3833C1.24966 38.2612 1.2154 38.1375 1.18412 38.0109C1.12156 37.7577 1.07091 37.497 1.03516 37.2304C0.978555 36.8207 0.9577 36.3098 1.05452 35.8435C1.06793 35.7765 1.08432 35.7125 1.10368 35.6484C1.11262 35.6171 1.12305 35.5844 1.13347 35.5531C1.15582 35.4905 1.17965 35.4294 1.20646 35.3713C1.23328 35.3117 1.26307 35.2551 1.29733 35.2C1.33159 35.1449 1.36734 35.0928 1.40756 35.0421C1.43884 35.0034 1.47012 34.9677 1.50141 34.9364C1.89466 34.5327 2.31622 34.5908 2.31622 34.5908C2.31622 34.5908 2.32069 34.5804 2.32963 34.5625C2.3341 34.5535 2.34006 34.5431 2.3475 34.5297C2.37283 34.4865 2.41156 34.421 2.4622 34.3465C2.51434 34.272 2.57988 34.1901 2.65585 34.1096C2.66628 34.0977 2.6782 34.0873 2.69011 34.0754C2.81673 33.9532 2.97314 33.84 3.15636 33.7864C3.91457 33.5615 4.36741 33.9115 4.50595 34.0441C4.51041 34.0486 4.51488 34.0515 4.51786 34.056C4.52531 34.0635 4.53127 34.0694 4.53574 34.0739C4.54021 34.0784 4.54318 34.0828 4.54616 34.0858C4.54765 34.0888 4.54914 34.0903 4.54914 34.0903C4.54914 34.0903 5.06306 33.697 5.69465 33.8296C5.71402 33.8341 5.73338 33.8385 5.75275 33.843C5.76615 33.846 5.77956 33.849 5.79297 33.8534C5.79744 33.8534 5.80041 33.8549 5.80488 33.8564C5.82425 33.8609 5.84361 33.8668 5.86298 33.8728C5.88532 33.8802 5.90618 33.8877 5.92852 33.8951C5.9315 33.8966 5.93448 33.8966 5.93746 33.8981C5.94789 33.9011 5.95831 33.9056 5.96874 33.9115C6.01641 33.9294 6.06258 33.9517 6.10727 33.9756C6.13111 33.989 6.15494 34.0009 6.17877 34.0158C6.20261 34.0292 6.22495 34.0426 6.2473 34.0575C6.25325 34.0605 6.25772 34.0649 6.26219 34.0679C6.28156 34.0813 6.30092 34.0947 6.3188 34.1081C6.36497 34.1409 6.40966 34.1767 6.45286 34.2154C6.4618 34.2228 6.47074 34.2303 6.47968 34.2377C6.49755 34.2526 6.51394 34.269 6.53181 34.2854C6.57054 34.3227 6.60778 34.3614 6.64353 34.4031C6.65396 34.415 6.66439 34.4254 6.67332 34.4374C6.70312 34.4716 6.73291 34.5089 6.76121 34.5461C6.78058 34.5714 6.79845 34.5953 6.81633 34.6221C6.85059 34.6682 6.88187 34.7174 6.91315 34.768C6.93549 34.8023 6.95486 34.8351 6.97422 34.8708C6.9921 34.9036 7.01147 34.9364 7.02934 34.9706C7.03232 34.9751 7.03381 34.9796 7.03679 34.984C7.07552 35.0555 7.10978 35.13 7.14404 35.206C7.17979 35.2849 7.21256 35.3669 7.24384 35.4503C7.25874 35.492 7.27513 35.5352 7.29002 35.5799C7.30492 35.6231 7.31832 35.6663 7.33322 35.711V35.7125C7.38685 35.8808 7.43302 36.058 7.47175 36.2442C7.47175 36.2472 7.47324 36.2502 7.47324 36.2547C7.47771 36.2755 7.48218 36.2964 7.48665 36.3187C7.49112 36.3366 7.4941 36.356 7.49857 36.3738C7.49857 36.3753 7.49857 36.3768 7.49857 36.3798C7.52538 36.6986 7.54623 37.0442 7.56262 37.4195C7.56262 37.4359 7.56411 37.4523 7.56411 37.4687C7.61029 38.4369 8.54576 39.1088 9.48123 38.8496C9.4857 38.8481 9.49166 38.8466 9.49613 38.8451C10.1694 38.6574 10.515 37.9156 10.2186 37.2825C9.88194 36.566 9.69723 35.7646 9.70468 34.917C9.73298 32.0078 12.091 29.6125 15.0002 29.538C18.0658 29.4606 20.5758 31.9229 20.5758 34.9721C20.5758 35.7303 20.4209 36.4528 20.1394 37.1097C19.8638 37.7547 20.2288 38.4936 20.9125 38.6529C21.1464 38.7081 21.3758 38.7661 21.6007 38.8272C22.5347 39.0819 23.4701 38.4101 23.5118 37.4434C23.5118 37.4359 23.5118 37.4285 23.5118 37.4195C23.5267 37.0427 23.5491 36.6941 23.5759 36.3738C23.8485 34.9811 24.4652 34.0218 25.3813 33.8311C26.0129 33.6985 26.5268 34.0918 26.5268 34.0918C26.5268 34.0918 26.9975 33.5138 27.9211 33.7864C28.4529 33.9443 28.7612 34.5893 28.7612 34.5893C28.7612 34.5893 29.2528 34.5208 29.6699 35.0406C30.1302 35.6156 30.1317 36.5571 30.0393 37.2274Z" fill="white"/>
<g opacity="0.3">
<path d="M30.0393 37.2274C29.7428 39.368 28.5988 41.0825 27.2299 41.5041C26.0069 41.8794 24.9314 41.6202 24.4011 41.4847C22.2918 40.9454 21.5351 40.7861 15.5364 40.7861C9.5378 40.7861 8.78108 40.9469 6.67179 41.4847C6.14149 41.6202 5.06451 41.8794 3.84303 41.5041C2.47557 41.0825 1.33006 39.368 1.03363 37.2274C0.984472 36.8639 0.960639 36.4215 1.02469 36.0029C1.02767 36.0283 1.03065 36.0536 1.03363 36.0774C1.33006 38.218 2.47408 39.9325 3.84303 40.3541C5.06451 40.7309 6.14149 40.4703 6.67179 40.3347C8.78108 39.7955 9.5378 39.3277 15.5364 39.3277C21.5351 39.3277 22.2918 39.7955 24.4011 40.3347C24.9314 40.4703 26.0084 40.7295 27.2299 40.3541C28.5973 39.934 29.7428 38.218 30.0393 36.0774C30.0422 36.0536 30.0452 36.0283 30.0482 36.0029C30.1123 36.4215 30.0884 36.8639 30.0393 37.2274Z" fill="#000072"/>
</g>
<path d="M23.3317 37.0501C23.3302 35.8361 23.6758 34.3837 24.8243 33.7342C25.1326 33.5689 25.4991 33.4825 25.8477 33.5302C26.1396 33.5659 26.4107 33.6702 26.655 33.8296C26.6535 33.8296 26.6833 33.846 26.6401 33.8206C26.5522 33.773 26.4331 33.7864 26.3586 33.8534C26.7444 33.4468 27.4743 33.3067 28.0791 33.5346C28.4962 33.6925 28.8016 34.0515 29.0086 34.4299C28.9699 34.348 28.8507 34.2839 28.7703 34.2958C29.3438 34.2765 29.816 34.6504 30.0707 35.1136C30.604 36.1444 30.3671 37.4195 30.0707 38.4831C29.6745 39.7374 28.9639 40.9976 27.741 41.6232C26.9515 42.0016 26.0354 42.0626 25.1788 41.9509C24.2925 41.8169 23.4449 41.516 22.5705 41.3819C20.2676 41.0318 17.8753 41.1152 15.5396 41.0855C13.2024 41.1108 10.8116 41.0259 8.50714 41.373C7.63274 41.507 6.78515 41.8049 5.89884 41.939C5.12126 42.0418 4.30645 41.9911 3.56909 41.7096C2.01692 41.0661 1.18125 39.3605 0.849068 37.8083C0.649461 36.8296 0.548167 35.6097 1.24232 34.7919C1.48811 34.5044 1.88881 34.2809 2.30739 34.3003C2.31037 34.2988 2.2493 34.3003 2.22398 34.3107C2.15992 34.3301 2.10481 34.3748 2.07502 34.4314C2.29846 34.0173 2.65298 33.6166 3.13115 33.4974C3.67187 33.341 4.30943 33.4438 4.72354 33.8609C4.72056 33.8579 4.75184 33.8877 4.71609 33.8549C4.69226 33.8355 4.66395 33.8177 4.63416 33.8072C4.5716 33.7849 4.49712 33.7908 4.44051 33.8221C4.3988 33.8475 4.42711 33.8296 4.42562 33.8311L4.44051 33.8221C4.97528 33.4721 5.62177 33.4095 6.20123 33.6925C7.38547 34.3077 7.71318 35.8286 7.74595 37.0486C7.7534 37.2214 7.4957 37.2497 7.4659 37.0784C7.34823 36.5064 7.19927 35.9463 6.96987 35.4354C6.58108 34.5297 5.70668 33.6896 4.75035 34.2943L4.74141 34.3003C4.73247 34.3048 4.75333 34.2943 4.70268 34.3241C4.62969 34.3644 4.53436 34.3718 4.45541 34.3435C4.39582 34.3241 4.34965 34.2869 4.30943 34.2437C4.02491 33.9726 3.5676 33.9368 3.19967 34.0694C2.9509 34.1662 2.76619 34.3882 2.62617 34.6161C2.57403 34.7174 2.50849 34.8261 2.38783 34.8559C2.35506 34.8693 2.28505 34.8693 2.2776 34.8678C2.16141 34.8649 2.04671 34.8976 1.93648 34.9557C1.08741 35.4622 1.23935 36.8505 1.41512 37.6892C1.70112 39.0119 2.36698 40.4405 3.60484 41.0855C4.56117 41.5279 5.65901 41.4534 6.65854 41.1823C9.54689 40.3585 12.5812 40.5224 15.5426 40.4807C18.5054 40.5179 21.5397 40.3526 24.4296 41.1733C25.3695 41.431 26.375 41.4996 27.2956 41.1525C28.6317 40.5939 29.3676 39.0432 29.6596 37.6862C29.7892 37.0859 29.8592 36.4349 29.7236 35.8361C29.6238 35.3683 29.3095 34.8827 28.8075 34.8738C28.8001 34.8753 28.7286 34.8738 28.6943 34.8619C28.6094 34.838 28.5394 34.7785 28.4992 34.704C28.4813 34.6712 28.4694 34.6489 28.4515 34.6191C28.3055 34.3822 28.1119 34.1498 27.8467 34.062C27.4996 33.9517 27.0825 33.9815 26.807 34.2199C26.7936 34.2318 26.7772 34.2452 26.7653 34.2586C26.6714 34.3643 26.5031 34.3941 26.3795 34.3271C26.1039 34.1424 25.7642 34.0366 25.438 34.1081C24.2583 34.3897 23.8799 36.0446 23.6192 37.0784C23.5701 37.2438 23.3347 37.2155 23.3317 37.0501Z" fill="#000072"/>
<path d="M4.35228 39.8917C5.10637 39.8499 5.67865 39.1121 5.6305 38.2438C5.58235 37.3756 4.932 36.7056 4.17791 36.7474C3.42381 36.7892 2.85153 37.527 2.89969 38.3953C2.94784 39.2635 3.59818 39.9335 4.35228 39.8917Z" fill="#FFA1A8"/>
<path d="M2.4619 37.4157C2.7469 37.3746 2.93902 37.0713 2.891 36.7383C2.84299 36.4053 2.57302 36.1686 2.28802 36.2097C2.00301 36.2507 1.8109 36.554 1.85891 36.8871C1.90693 37.2201 2.17689 37.4568 2.4619 37.4157Z" fill="#FFA1A8"/>
<path d="M3.83104 36.2937C4.11604 36.2526 4.30816 35.9493 4.26014 35.6162C4.21213 35.2832 3.94216 35.0465 3.65716 35.0876C3.37215 35.1287 3.18004 35.432 3.22805 35.765C3.27607 36.0981 3.54603 36.3347 3.83104 36.2937Z" fill="#FFA1A8"/>
<path d="M5.53074 36.5528C5.81575 36.5117 6.00786 36.2084 5.95985 35.8754C5.91183 35.5423 5.64187 35.3057 5.35687 35.3467C5.07186 35.3878 4.87974 35.6911 4.92776 36.0242C4.97578 36.3572 5.24574 36.5939 5.53074 36.5528Z" fill="#FFA1A8"/>
<path d="M28.108 38.392C28.1562 37.5238 27.5839 36.786 26.8298 36.7442C26.0757 36.7023 25.4254 37.3723 25.3772 38.2406C25.3291 39.1089 25.9014 39.8466 26.6554 39.8885C27.4095 39.9303 28.0599 39.2603 28.108 38.392Z" fill="#FFA1A8"/>
<path d="M29.1508 36.8867C29.1988 36.5537 29.0067 36.2504 28.7217 36.2093C28.4367 36.1682 28.1667 36.4049 28.1187 36.7379C28.0707 37.071 28.2628 37.3743 28.5478 37.4153C28.8328 37.4564 29.1028 37.2198 29.1508 36.8867Z" fill="#FFA1A8"/>
<path d="M27.7826 35.7651C27.8306 35.4321 27.6385 35.1288 27.3535 35.0877C27.0685 35.0466 26.7985 35.2833 26.7505 35.6163C26.7025 35.9494 26.8946 36.2527 27.1796 36.2938C27.4646 36.3348 27.7346 36.0982 27.7826 35.7651Z" fill="#FFA1A8"/>
<path d="M26.0824 36.0249C26.1304 35.6918 25.9383 35.3885 25.6533 35.3475C25.3683 35.3064 25.0983 35.543 25.0503 35.8761C25.0023 36.2091 25.1944 36.5124 25.4794 36.5535C25.7644 36.5946 26.0344 36.3579 26.0824 36.0249Z" fill="#FFA1A8"/>
<g opacity="0.3">
<path d="M3.7511 20.9803C3.75415 20.9864 3.7572 20.991 3.76025 20.9971L3.74805 20.9773C3.74957 20.9788 3.74957 20.9788 3.7511 20.9803Z" fill="#6B184E"/>
<path d="M3.75977 20.9967L4.10386 21.5493C3.9847 21.3691 3.87 21.1874 3.75977 20.9967Z" fill="#6B184E"/>
</g>
<g opacity="0.3">
<path d="M3.75049 20.803C3.75198 20.806 3.75495 20.8074 3.75644 20.8089C3.75942 20.8134 3.7624 20.8164 3.76538 20.8208L3.75049 20.803Z" fill="#6B184E"/>
<path d="M4.09783 21.229C3.98313 21.0964 3.87141 20.9608 3.76416 20.8193L4.09783 21.229Z" fill="#6B184E"/>
<path d="M26.9902 21.2291L27.3239 20.8224C27.2181 20.9624 27.1064 21.098 26.9902 21.2291Z" fill="#6B184E"/>
</g>
<path d="M4.10374 21.3705C3.98755 21.2379 3.87583 21.1009 3.76709 20.9579L4.10374 21.3705Z" fill="white"/>
<path d="M26.9678 21.3705L27.3029 20.9594C27.1972 21.1009 27.084 21.2379 26.9678 21.3705Z" fill="white"/>
<g opacity="0.25">
<path d="M27.31 20.6421C27.3086 20.6465 27.3057 20.6508 27.3042 20.6552C27.3057 20.6523 27.3071 20.6479 27.31 20.6421C27.31 20.6435 27.3086 20.6435 27.31 20.6421Z" fill="#6B184E"/>
</g>
<g opacity="0.3">
<path d="M22.6554 25.4848C18.0168 27.0191 13.1189 27.0236 8.49072 25.5101C8.59053 25.2807 8.68735 25.0618 8.77971 24.8532C8.84823 24.6998 8.91526 24.5508 8.9808 24.4078C9.06273 24.2276 9.14168 24.0578 9.21467 23.8984C9.6556 22.9465 9.93862 22.3894 9.93862 22.3894H21.2164C21.2164 22.3894 21.2194 22.3969 21.2269 22.4117C21.2507 22.4579 21.3133 22.5816 21.4056 22.7722C21.5665 23.1029 21.8227 23.6362 22.1385 24.3274C22.1504 24.3542 22.1623 24.381 22.1757 24.4078C22.2338 24.5374 22.2964 24.673 22.359 24.813C22.4543 25.026 22.5541 25.2495 22.6554 25.4848Z" fill="#000072"/>
</g>
<path d="M30.1126 18.5626C30.0486 19.1257 28.9001 18.5924 28.6498 18.4688C28.6305 18.4583 28.6081 18.4792 28.6141 18.5045C28.629 18.5656 28.6588 18.6743 28.7169 18.8322C28.7526 18.9261 28.7973 19.0378 28.8554 19.1689C29.0505 19.5994 29.2084 19.9345 29.1206 20.161C29.0267 20.4008 28.6364 20.4946 28.1493 20.4395C27.9616 20.4187 27.762 20.5259 27.5728 20.6898C27.4894 20.7628 27.406 20.8462 27.3256 20.9341L27.3226 20.9356L27.3062 20.9579C27.3107 20.9519 27.3151 20.9445 27.3196 20.9385C27.2511 21.0145 27.1856 21.0949 27.1215 21.1739C27.0679 21.2409 27.0157 21.308 26.9681 21.372C26.9472 21.3958 26.9264 21.4197 26.904 21.442C26.4854 21.9127 26.0132 22.3313 25.5008 22.7037C24.8067 23.1908 24.0425 23.5751 23.2351 23.8775V23.8716C23.2351 23.8716 22.1283 24.2797 20.4927 24.6536C20.4927 24.6536 19.03 24.9664 17.6938 25.1392C17.6938 25.1392 16.6719 25.2599 15.5473 25.2599C14.4241 25.2599 13.3843 25.1392 13.3843 25.1392C12.0482 24.9664 10.5854 24.6536 10.5854 24.6536C8.94978 24.2782 7.843 23.8716 7.843 23.8716V23.8775C7.03713 23.5766 6.27147 23.1923 5.57731 22.7037C5.08574 22.3462 4.63141 21.9455 4.22326 21.4956C4.18453 21.4539 4.14729 21.4122 4.11005 21.3705C4.05344 21.296 3.99237 21.2186 3.9298 21.1396C3.8732 21.0696 3.8151 21.0011 3.75552 20.9341C3.75999 20.9415 3.76595 20.949 3.77042 20.9564L3.75105 20.9311C3.75105 20.9311 3.75254 20.9326 3.75403 20.9326C3.687 20.8581 3.6155 20.7851 3.544 20.721C3.34141 20.5378 3.1284 20.4127 2.9273 20.435C2.44169 20.4902 2.04992 20.3963 1.95608 20.1565C1.86819 19.9301 2.02609 19.5949 2.21974 19.1644C2.25996 19.075 2.29273 18.9946 2.32252 18.9231C2.40594 18.7116 2.44467 18.5715 2.46254 18.5C2.46701 18.4747 2.44765 18.4554 2.42679 18.4643C2.17654 18.5864 1.02805 19.1212 0.963996 18.5581C0.95208 18.4613 0.992299 18.3049 1.05933 18.1053C1.20829 17.6614 1.48834 17.0045 1.609 16.3371C1.69093 15.8858 1.76392 15.4925 1.82797 15.1514C1.91734 14.6792 1.99034 14.3053 2.04843 14.0104C2.2108 13.1941 2.2674 12.9855 2.2674 12.9855C2.27038 12.9662 2.76642 10.9597 3.50676 9.48196C2.76791 7.50972 2.2823 1.76132 3.52016 0.560701C4.51373 -0.403075 8.24967 1.61981 9.65139 3.03494C10.058 2.86512 10.5094 2.72212 10.9742 2.60295C11.567 2.4525 12.1837 2.3378 12.7662 2.25438C13.4827 2.15011 14.147 2.09053 14.652 2.05627C15.0929 2.02796 15.4132 2.01754 15.5383 2.01754C15.6634 2.01754 15.9792 2.02647 16.4157 2.05478C16.5542 2.0652 16.7077 2.07563 16.8685 2.08904C17.2946 2.12479 17.7891 2.17841 18.3105 2.25438C18.8929 2.3378 19.5096 2.4525 20.1025 2.60295C20.5687 2.72212 21.0186 2.86363 21.4252 3.03345C22.827 1.61832 26.5629 -0.404564 27.5565 0.559212C28.7943 1.75984 28.3087 7.50823 27.5699 9.48047C28.0376 10.4145 28.4085 11.56 28.6171 12.2809C28.7392 12.701 28.8077 12.9781 28.8092 12.984C28.8092 12.984 28.8658 13.1956 29.0282 14.0163C29.0863 14.3053 29.1563 14.6703 29.2427 15.1291C29.3082 15.4761 29.3827 15.8768 29.4661 16.3371C29.5838 16.9821 29.849 17.6167 30.0009 18.0606C30.0769 18.2855 30.1245 18.4583 30.1126 18.5626Z" fill="#BFBFBF"/>
<g opacity="0.5">
<path d="M28.3099 4.51561C28.2801 3.07218 28.0626 1.81942 27.5561 1.32934C26.5626 0.36556 22.8251 2.38845 21.4249 3.80358C21.0182 3.63376 20.5669 3.49076 20.1021 3.37308C19.5093 3.22114 18.8926 3.10793 18.3101 3.02451C17.7888 2.94854 17.2942 2.89491 16.8682 2.85916C16.7073 2.84576 16.5539 2.83384 16.4154 2.8249C15.9789 2.7966 15.6631 2.78766 15.538 2.78766C15.4114 2.78766 15.0926 2.7966 14.6517 2.82639C14.1467 2.86065 13.4823 2.92024 12.7658 3.02451C12.1834 3.10942 11.5667 3.22263 10.9738 3.37308C10.5076 3.49225 10.0577 3.63525 9.65105 3.80506C8.24933 2.38994 4.51339 0.36705 3.51983 1.33083C3.01336 1.8224 2.79439 3.07367 2.7646 4.51859C2.72736 2.7683 2.92547 1.14314 3.51983 0.568147C4.51339 -0.395629 8.24933 1.62726 9.65105 3.04238C10.0577 2.87257 10.5091 2.72957 10.9738 2.6104C11.5667 2.45995 12.1834 2.34525 12.7658 2.26183C13.4823 2.15756 14.1467 2.09797 14.6517 2.06371C15.0926 2.03541 15.4129 2.02498 15.538 2.02498C15.6631 2.02498 15.9789 2.03392 16.4154 2.06222C16.5539 2.07265 16.7073 2.08308 16.8682 2.09648C17.2942 2.13223 17.7888 2.18586 18.3101 2.26183C18.8926 2.34525 19.5093 2.45995 20.1021 2.6104C20.5684 2.72957 21.0182 2.87108 21.4249 3.0409C22.8266 1.62577 26.5626 -0.397118 27.5561 0.566658C28.149 1.14016 28.3471 2.76383 28.3099 4.51561Z" fill="white"/>
</g>
<path d="M2.3191 18.9277C2.40252 18.7161 2.44125 18.5761 2.45912 18.5046C2.46359 18.4793 2.44423 18.4599 2.42337 18.4689C2.17312 18.591 1.02463 19.1258 0.960578 18.5627C0.948662 18.4659 0.98888 18.3095 1.05591 18.1099C2.17461 17.6198 3.68209 17.091 5.34449 16.8616C5.343 16.8616 3.85786 17.7345 2.3191 18.9277Z" fill="white"/>
<path d="M6.00434 19.1376C5.97604 19.1703 5.13143 20.1714 4.21979 21.5001C4.18106 21.4584 4.14382 21.4167 4.10658 21.375C4.04997 21.3005 3.9889 21.223 3.92634 21.1441C3.86973 21.0741 3.81164 21.0055 3.75205 20.9385C3.75652 20.946 3.76248 20.9534 3.76695 20.9609L3.74758 20.9355C3.74758 20.9355 3.74907 20.937 3.75056 20.937C3.68353 20.8625 3.61203 20.7895 3.54053 20.7255C4.25107 20.1699 5.08078 19.6098 6.00434 19.1376Z" fill="white"/>
<path d="M5.13759 14.5154C5.13759 14.5154 3.59436 14.7135 1.82471 15.1559C1.91408 14.6837 1.98707 14.3098 2.04517 14.0149C2.99703 14.076 4.06061 14.2219 5.13759 14.5154Z" fill="white"/>
<path d="M30.1124 18.5626C30.0484 19.1257 28.8999 18.5924 28.6496 18.4688C28.6303 18.4583 28.6079 18.4792 28.6139 18.5045C28.6288 18.5656 28.6586 18.6743 28.7167 18.8322C27.2226 17.6882 25.8164 16.86 25.8164 16.86C27.4282 17.0834 28.8939 17.5869 30.0022 18.0636C30.0767 18.2855 30.1243 18.4583 30.1124 18.5626Z" fill="white"/>
<path d="M27.5709 20.6898C27.4875 20.7628 27.4041 20.8462 27.3236 20.9341L27.3207 20.9356L27.3043 20.9579C27.3087 20.952 27.3132 20.9445 27.3177 20.9386C27.2491 21.0145 27.1836 21.095 27.1196 21.1739C27.0659 21.2409 27.0138 21.308 26.9661 21.372C26.9453 21.3959 26.9244 21.4197 26.9021 21.442C26.0053 20.1401 25.1831 19.1674 25.1562 19.1346C26.0575 19.5979 26.8708 20.1461 27.5709 20.6898Z" fill="white"/>
<path d="M29.242 15.132C27.5111 14.706 26.0215 14.5153 26.0215 14.5153C27.0657 14.2293 28.098 14.0848 29.0275 14.0193C29.0856 14.3098 29.1556 14.6747 29.242 15.132Z" fill="white"/>
<g opacity="0.3">
<path d="M28.8549 19.1688C29.0501 19.5993 29.208 19.9345 29.1201 20.1609C29.0262 20.4007 28.636 20.4946 28.1489 20.4395C27.9612 20.4186 27.7616 20.5259 27.5724 20.6897C27.489 20.7627 27.4055 20.8461 27.3251 20.934L27.3221 20.9355L27.3057 20.9579C27.3102 20.9519 27.3147 20.9445 27.3191 20.9385C27.2506 21.0145 27.1851 21.0949 27.121 21.1739C27.0674 21.2409 27.0153 21.3079 26.9676 21.372C26.9467 21.3958 26.9259 21.4196 26.9035 21.442C26.485 21.9127 26.0128 22.3313 25.5003 22.7037C24.8062 23.1908 24.042 23.5751 23.2346 23.8775V23.8715C23.2346 23.8715 22.1279 24.2797 20.4923 24.6536C20.4923 24.6536 19.0295 24.9664 17.6933 25.1392C17.6933 25.1392 16.6714 25.2598 15.5468 25.2598C14.4236 25.2598 13.3839 25.1392 13.3839 25.1392C12.0477 24.9664 10.5849 24.6536 10.5849 24.6536C8.9493 24.2782 7.84253 23.8715 7.84253 23.8715V23.8775C7.03665 23.5766 6.27099 23.1923 5.57683 22.7037C5.08526 22.3462 4.63093 21.9455 4.22278 21.4956C4.18405 21.4539 4.14681 21.4122 4.10957 21.3705C4.05296 21.296 3.99189 21.2185 3.92933 21.1396C3.87272 21.0696 3.81463 21.0011 3.75504 20.934C3.75951 20.9415 3.76547 20.9489 3.76994 20.9564L3.75057 20.931C3.75057 20.931 3.75206 20.9325 3.75355 20.9325C3.68652 20.8581 3.61502 20.7851 3.54352 20.721C3.34093 20.5378 3.12792 20.4127 2.92682 20.435C2.44121 20.4901 2.04944 20.3963 1.9556 20.1565C1.86771 19.93 2.02561 19.5949 2.21926 19.1644C2.25948 19.075 2.29225 18.9946 2.32204 18.9231C2.32949 18.9067 2.33545 18.8903 2.34141 18.8739C2.50377 18.9111 2.70487 18.9156 2.92682 18.8903C3.12792 18.8665 3.34242 18.9931 3.54352 19.1763C3.61502 19.2403 3.68503 19.3118 3.75355 19.3878C3.75355 19.3878 3.75206 19.3863 3.75057 19.3863L3.76994 19.4116C3.76547 19.4042 3.75951 19.3968 3.75504 19.3893C3.81463 19.4563 3.87421 19.5249 3.92933 19.5949C3.99338 19.6738 4.05296 19.7513 4.10957 19.8258C4.14681 19.8675 4.18405 19.9092 4.22278 19.9509C4.63093 20.3993 5.08526 20.8 5.57683 21.159C6.27099 21.6461 7.03516 22.0304 7.84253 22.3328V22.3268C7.84253 22.3268 8.9493 22.735 10.5849 23.1089C10.5849 23.1089 12.0477 23.4217 13.3839 23.5945C13.3839 23.5945 14.4236 23.7151 15.5468 23.7151C16.6714 23.7151 17.6933 23.5945 17.6933 23.5945C19.0295 23.4217 20.4923 23.1089 20.4923 23.1089C22.1294 22.7335 23.2346 22.3268 23.2346 22.3268V22.3328C24.0405 22.0319 24.8062 21.6476 25.5003 21.159C26.0128 20.7866 26.485 20.368 26.9035 19.8973C26.9259 19.8734 26.9467 19.8511 26.9676 19.8273C27.0153 19.7632 27.0674 19.6962 27.121 19.6291C27.1851 19.5502 27.2506 19.4697 27.3191 19.3938C27.3147 19.3997 27.3102 19.4072 27.3057 19.4131L27.3221 19.3908L27.3251 19.3893C27.4055 19.3014 27.4875 19.2165 27.5724 19.145C27.763 18.9812 27.9612 18.8739 28.1489 18.8948C28.3708 18.9201 28.5719 18.9141 28.7343 18.8784C28.7655 18.9633 28.8058 19.0601 28.8549 19.1688Z" fill="#000072"/>
</g>
<path d="M15.38 6.7084C15.1506 5.37222 14.732 2.90543 14.659 2.22021C14.6501 2.13233 14.7156 2.05487 14.8035 2.0504C15.164 2.02954 15.4247 2.02209 15.5349 2.02209C15.6451 2.02209 15.9014 2.02805 16.2574 2.0504C16.3453 2.05487 16.4108 2.13382 16.4019 2.22021C16.3289 2.90543 15.9118 5.37222 15.6824 6.7084C15.6541 6.87822 15.4098 6.87822 15.38 6.7084Z" fill="white"/>
<path d="M20.0157 2.78621L18.5693 5.8414C18.4993 5.99036 18.2744 5.93971 18.2759 5.77437L18.3057 2.44361C18.3072 2.34678 18.3951 2.27528 18.4889 2.29315L19.904 2.56873C20.0053 2.58959 20.0589 2.69535 20.0157 2.78621Z" fill="white"/>
<path d="M12.502 5.8414L11.0556 2.78621C11.0124 2.69535 11.066 2.5881 11.1658 2.56873L12.581 2.29315C12.6748 2.27528 12.7642 2.34678 12.7642 2.44361L12.794 5.77586C12.797 5.93971 12.572 5.99185 12.502 5.8414Z" fill="white"/>
<g opacity="0.3">
<path d="M3.77002 20.9609L4.10518 21.3706C3.9875 21.238 3.87578 21.1025 3.77002 20.9609Z" fill="#6B184E"/>
<path d="M26.9678 21.3706L27.3029 20.9609C27.1957 21.1025 27.0825 21.238 26.9678 21.3706Z" fill="#6B184E"/>
</g>
<g opacity="0.3">
<path d="M3.75103 19.6216C3.75701 19.6306 3.76299 19.638 3.77046 19.647L3.74805 19.6201C3.74805 19.6201 3.75103 19.6201 3.75103 19.6216Z" fill="#6B184E"/>
<path d="M27.3212 19.6218C27.3227 19.6203 27.3242 19.6203 27.3242 19.6188L27.3018 19.6457C27.3092 19.6382 27.3152 19.6307 27.3212 19.6218Z" fill="#6B184E"/>
</g>
<path d="M6.28133 5.57627C5.30117 6.57133 4.68447 7.96262 4.59659 7.80025C4.58765 7.78536 4.5802 7.76599 4.57127 7.74365C4.38357 7.28932 4.07225 5.4854 4.07374 3.87663C4.07523 3.61744 4.08118 3.38804 4.09608 3.18694C4.13332 2.64174 4.21525 2.29317 4.31505 2.06973C4.43869 1.79713 4.71874 1.71223 4.96601 1.80458C5.62442 2.04888 7.49387 3.21375 8.10312 3.96005C8.21187 4.09262 7.2615 4.58121 6.28133 5.57627Z" fill="#FFA1A8"/>
<path d="M6.28144 5.57627C5.30128 6.57133 4.68459 7.96262 4.5967 7.80025C4.58776 7.78536 4.58031 7.76599 4.57138 7.74365C4.78886 6.90053 5.39066 5.73417 5.85244 4.89105C6.48254 3.73958 5.6141 2.82496 4.86036 2.55237C4.60117 2.45852 4.2958 2.86071 4.09619 3.18694C4.13343 2.64174 4.21536 2.29317 4.31516 2.06973C4.4388 1.79713 4.71885 1.71223 4.96612 1.80458C5.62453 2.04888 7.49399 3.21375 8.10324 3.96005C8.21198 4.09262 7.26161 4.58121 6.28144 5.57627Z" fill="#FF8392"/>
<path d="M4.62073 8.09517C4.61626 8.09517 4.61179 8.09517 4.60584 8.09517C4.49709 8.09219 4.40176 8.03112 4.34813 7.93429C4.12767 7.52614 3.78953 5.54645 3.79102 3.87809C3.79102 2.97986 3.87891 2.34975 4.05617 1.95501C4.23343 1.56473 4.65648 1.39045 5.06315 1.5409C5.73794 1.79115 7.67145 2.98582 8.32241 3.78276C8.37752 3.85128 8.40285 3.93619 8.39242 4.02407C8.37007 4.21772 8.20622 4.34136 7.81147 4.64077C7.45992 4.90741 6.97878 5.27385 6.48274 5.77585C5.93754 6.3285 5.50556 7.01669 5.21806 7.47251C4.92014 7.94472 4.82481 8.09517 4.62073 8.09517ZM4.35558 3.87809C4.35409 5.1383 4.55221 6.50725 4.7116 7.21481C4.72202 7.19992 4.73096 7.18353 4.7399 7.16863C5.03931 6.69196 5.49215 5.97397 6.08055 5.37664C6.6034 4.84485 7.12476 4.4501 7.47035 4.18793C7.5642 4.11643 7.66549 4.04046 7.74295 3.9779C7.05177 3.27182 5.42065 2.2723 4.86801 2.06822C4.7682 2.03098 4.63712 2.0429 4.57306 2.1859C4.43006 2.50318 4.35707 3.07221 4.35558 3.87809Z" fill="#000072"/>
<path d="M24.7141 5.57627C25.6943 6.57133 26.311 7.96262 26.3989 7.80025C26.4078 7.78536 26.4152 7.76599 26.4242 7.74365C26.6119 7.28932 26.9232 5.4854 26.9217 3.87663C26.9202 3.61744 26.9143 3.38804 26.8994 3.18694C26.8621 2.64174 26.7802 2.29317 26.6804 2.06973C26.5568 1.79713 26.2767 1.71223 26.0294 1.80458C25.371 2.04888 23.5016 3.21375 22.8923 3.96005C22.7836 4.09262 23.7325 4.58121 24.7141 5.57627Z" fill="#FFA1A8"/>
<path d="M24.7141 5.57627C25.6943 6.57133 26.311 7.96262 26.3989 7.80025C26.4078 7.78536 26.4152 7.76599 26.4242 7.74365C26.2067 6.90053 25.6049 5.73417 25.1431 4.89105C24.513 3.73958 25.3815 2.82496 26.1352 2.55237C26.3944 2.45852 26.6998 2.86071 26.8994 3.18694C26.8621 2.64174 26.7802 2.29317 26.6804 2.06973C26.5568 1.79713 26.2767 1.71223 26.0294 1.80458C25.371 2.04888 23.5016 3.21375 22.8923 3.96005C22.7836 4.09262 23.7325 4.58121 24.7141 5.57627Z" fill="#FF8392"/>
<path d="M26.3751 8.09522C26.171 8.09522 26.0757 7.94477 25.7763 7.46958C25.4903 7.01376 25.0568 6.32556 24.5116 5.77441C24.017 5.27241 23.5344 4.90597 23.1829 4.63933C22.7881 4.33992 22.6243 4.21628 22.6019 4.02263C22.5915 3.93474 22.6168 3.84984 22.6719 3.78131C23.3214 2.98586 25.2564 1.78971 25.9312 1.53945C26.3378 1.389 26.7609 1.56329 26.9367 1.95208C27.1154 2.34831 27.2018 2.97692 27.2018 3.87665C27.2033 5.54501 26.8652 7.5247 26.6447 7.93285C26.5926 8.02967 26.4957 8.09075 26.387 8.09373C26.3855 8.09522 26.3796 8.09522 26.3751 8.09522ZM23.2544 3.97943C23.3303 4.04199 23.4316 4.11796 23.527 4.18947C23.8711 4.45164 24.3924 4.84638 24.9168 5.37817C25.5037 5.97402 25.9565 6.69349 26.2574 7.17017C26.2663 7.18506 26.2768 7.20145 26.2857 7.21635C26.4451 6.50878 26.6417 5.13983 26.6417 3.87963C26.6417 3.07375 26.5687 2.50472 26.4257 2.18743C26.3617 2.04443 26.2306 2.034 26.1308 2.07124C25.5767 2.27383 23.9455 3.27485 23.2544 3.97943Z" fill="#000072"/>
<path d="M13.3618 25.2822C11.4461 25.1512 9.55432 24.7802 7.74146 24.1397L8.1228 23.8746V23.8805V24.2887C7.26479 23.9818 6.41869 23.6139 5.65303 23.1059C5.00357 22.6784 4.41517 22.157 3.89977 21.5746L3.89381 21.5672L3.89083 21.5642C3.91317 21.585 3.93403 21.6074 3.96084 21.6208L3.88785 21.5612L3.52141 21.1113L3.53481 21.1277L3.53183 21.1247L3.97276 20.7523L4.33175 21.1918L3.87891 21.5493C3.66441 21.2767 3.46033 21.0026 3.18773 20.8149C3.10283 20.7568 3.02835 20.7285 2.97025 20.73C2.92854 20.7285 2.88534 20.7374 2.84214 20.7389C2.35802 20.7881 1.63705 20.6421 1.63854 20.0254C1.63556 19.7901 1.7309 19.5711 1.80836 19.3774C1.93646 19.0736 2.08394 18.7875 2.16735 18.4718L2.17182 18.4524L2.17331 18.4435L2.1748 18.439L2.17182 18.4554C2.13756 18.6594 2.36249 18.8337 2.55465 18.7339L2.54422 18.7399L2.52188 18.7503L2.47719 18.7712C1.94242 19.014 0.846071 19.4787 0.668807 18.6013C0.646463 18.3392 0.743288 18.147 0.807341 17.931C0.989073 17.4112 1.18868 16.9136 1.29593 16.3818C1.42255 15.719 1.54023 15.0457 1.66982 14.3828C1.77708 13.8435 1.90518 13.1524 2.03329 12.6876C2.34611 11.5436 2.70808 10.4234 3.23242 9.35089L3.21902 9.59369C2.50102 7.60507 1.99903 2.50316 3.03877 0.678392C3.10878 0.559224 3.20114 0.444524 3.30094 0.340251L3.33521 0.311948L3.40522 0.255344C4.00404 -0.164726 4.81438 0.0199858 5.44747 0.198739C7.00411 0.694778 8.6963 1.68388 9.87756 2.81598L9.52601 2.74597C10.0101 2.54636 10.5047 2.3974 11.0007 2.27227C11.9913 2.02649 12.9983 1.88348 14.0097 1.78666C14.5222 1.74197 15.0167 1.70473 15.5381 1.69728C16.0579 1.70324 16.5525 1.74197 17.0664 1.78666C18.5903 1.9386 20.1171 2.16949 21.5516 2.74448L21.1971 2.81449C21.6976 2.31994 22.2532 1.91626 22.8371 1.5379C23.9186 0.854165 26.4986 -0.578837 27.6724 0.252364C28.4723 0.880979 28.5766 2.57764 28.6198 3.51609C28.6615 4.88206 28.5587 6.23761 28.3457 7.58421C28.231 8.26794 28.0999 8.93529 27.8616 9.59667L27.8482 9.3494C28.3725 10.4234 28.736 11.5421 29.0488 12.6876C29.1069 12.9066 29.1412 13.0526 29.1918 13.2894C29.3869 14.2428 29.5806 15.2512 29.7519 16.2076C29.8115 16.5591 29.9098 16.8943 30.0275 17.2354C30.1049 17.4648 30.1913 17.6912 30.2762 17.9325C30.3865 18.2334 30.5369 18.6743 30.2509 18.9499C29.8204 19.3476 28.9982 18.9603 28.5543 18.7592L28.5319 18.7488L28.5215 18.7429C28.5543 18.7592 28.6004 18.7727 28.6481 18.7712C28.736 18.7712 28.8164 18.725 28.8641 18.6594C28.9207 18.5969 28.9207 18.4941 28.9103 18.4449L28.9118 18.4539L28.9162 18.4718L28.9386 18.5492C29.1337 19.2478 29.9947 20.3263 28.8909 20.6928C28.6228 20.7702 28.3815 20.7628 28.1178 20.7374C28.1089 20.7389 28.0999 20.7374 28.091 20.7374C28.0463 20.7404 27.9703 20.7702 27.8929 20.8224C27.6188 21.01 27.4177 21.2841 27.2032 21.5552L26.7384 21.1888L27.0974 20.7494L27.5488 21.1307C27.5398 21.1396 27.5607 21.1158 27.5592 21.1158L27.1913 21.5657L27.1153 21.6282C27.1436 21.6148 27.1659 21.5925 27.1883 21.5701L27.1853 21.5731C26.1605 22.7574 24.7975 23.6228 23.3362 24.1546L22.9429 24.3006V23.8805V23.8746L23.3347 24.1472C21.9702 24.6268 20.5729 24.9754 19.1399 25.1512C18.6662 25.2137 18.1911 25.2614 17.7114 25.2822C17.5371 25.2852 17.5088 25.0409 17.6742 25.0022L19.0595 24.6983C19.8669 24.521 21.0139 24.2604 21.7974 24.0235C22.3798 23.8612 22.9623 23.666 23.5253 23.4604V23.8746V23.8805L23.1321 23.6079C23.9097 23.3174 24.653 22.9436 25.3293 22.4684C25.8372 22.0975 26.3094 21.6744 26.725 21.2022C26.7518 21.1679 26.7861 21.1367 26.8233 21.1143L26.7474 21.1769L27.087 20.7598L27.1004 20.7434L27.1034 20.7404L27.5547 21.1218L27.1957 21.5612L26.731 21.1948C27.0706 20.7762 27.4475 20.2191 28.0478 20.1431C28.1759 20.1371 28.307 20.1625 28.4336 20.158C28.5364 20.1565 28.6392 20.1446 28.7181 20.1207C28.8 20.0984 28.8447 20.0567 28.8418 20.0552C28.8626 19.9122 28.7792 19.7618 28.7226 19.6083C28.5841 19.2895 28.4247 18.9633 28.3338 18.6222C28.2295 18.3228 28.5319 18.0576 28.812 18.217L28.8507 18.2364L28.9296 18.2721C29.2082 18.3868 29.521 18.5328 29.8189 18.5135C29.8443 18.509 29.8428 18.503 29.8279 18.5164C29.813 18.5313 29.8115 18.5477 29.8145 18.5313C29.7996 18.4166 29.7534 18.2632 29.7042 18.1277C29.5165 17.6018 29.3035 17.0596 29.1918 16.5025C28.9818 15.4493 28.7554 14.0893 28.5096 13.0481C28.2012 11.8817 27.8244 10.7064 27.2941 9.62646L27.2345 9.50581L27.2806 9.37919C27.9405 7.54101 28.4098 2.68787 27.4937 1.00164C27.4549 0.9495 27.4222 0.885447 27.379 0.845228L27.3492 0.810967L27.3343 0.794582C27.3075 0.779686 27.2911 0.752872 27.2613 0.740955C27.2374 0.730528 27.2181 0.714143 27.1913 0.705205L27.1108 0.675413C26.004 0.438565 24.1257 1.48278 23.1812 2.08011C22.5675 2.47486 21.9925 2.91131 21.4995 3.42225C20.5417 3.01112 19.5079 2.77576 18.4741 2.61637C17.5073 2.4689 16.5123 2.37357 15.5366 2.35122C15.0569 2.35867 14.5519 2.39293 14.0678 2.43464C12.614 2.57615 11.1318 2.79661 9.7718 3.33734L9.57219 3.41927C8.6248 2.45251 7.40332 1.70324 6.16844 1.14166C5.56515 0.880979 4.33324 0.396856 3.77762 0.757341C3.76868 0.764789 3.75974 0.772237 3.74932 0.779686L3.73442 0.790113L3.71952 0.807988L3.68973 0.842249C3.53034 1.02696 3.43501 1.27423 3.35904 1.5081C2.78256 3.48481 3.11474 7.55442 3.83273 9.50432C3.40224 10.3504 3.0775 11.2665 2.80044 12.1797C2.71106 12.4642 2.62913 12.777 2.55316 13.0675C2.50251 13.2641 2.44293 13.5739 2.39824 13.7735C2.25375 14.4707 2.02584 15.7026 1.89475 16.4042C1.77261 17.1058 1.45681 17.7731 1.26465 18.4449C1.25124 18.4941 1.25273 18.5298 1.25124 18.5313C1.25422 18.5492 1.25273 18.5343 1.23933 18.5209C1.22592 18.509 1.22592 18.515 1.25124 18.5194C1.38382 18.5358 1.51639 18.5001 1.66089 18.4598C1.84858 18.4047 2.04223 18.3258 2.22247 18.2409C2.29248 18.2081 2.35057 18.1723 2.43697 18.1753C2.65296 18.1753 2.79895 18.4017 2.73787 18.5939C2.63062 19.0482 2.36398 19.4728 2.23439 19.9092C2.22396 19.9539 2.218 19.9941 2.218 20.0209C2.218 20.0478 2.22396 20.0582 2.22396 20.0582C2.22247 20.0627 2.26865 20.1044 2.35206 20.1267C2.51145 20.1729 2.71702 20.1714 2.88981 20.152C2.9345 20.1491 2.97919 20.1476 3.02388 20.1505C3.61972 20.2265 3.99808 20.7821 4.33473 21.2007L3.88189 21.5582L3.5229 21.1188L3.96382 20.7464L3.9668 20.7494L3.9802 20.7657L4.31984 21.1843L4.24684 21.1247C4.31239 21.162 4.36005 21.2335 4.41219 21.2871C5.36405 22.3566 6.59745 23.1253 7.93809 23.6183L7.55675 23.8835V23.8775V23.4739C8.11535 23.6794 8.69779 23.8731 9.27278 24.0384C10.1785 24.3065 11.0856 24.521 12.0107 24.7147C12.4725 24.8145 12.9357 24.9098 13.399 25.0052C13.5688 25.0379 13.536 25.2912 13.3618 25.2822Z" fill="#000072"/>
<path d="M22.8551 19.9421C23.6037 19.9421 24.2106 19.6506 24.2106 19.2911C24.2106 18.9316 23.6037 18.6401 22.8551 18.6401C22.1064 18.6401 21.4995 18.9316 21.4995 19.2911C21.4995 19.6506 22.1064 19.9421 22.8551 19.9421Z" fill="#FF7687"/>
<path d="M8.20759 19.9421C8.95624 19.9421 9.56314 19.6506 9.56314 19.2911C9.56314 18.9316 8.95624 18.6401 8.20759 18.6401C7.45895 18.6401 6.85205 18.9316 6.85205 19.2911C6.85205 19.6506 7.45895 19.9421 8.20759 19.9421Z" fill="#FF7687"/>
<path d="M13.5049 18.2796C13.5049 18.2796 13.8609 19.2136 14.6936 18.9976C15.641 18.7518 15.5278 17.6212 15.5278 17.6212" fill="white"/>
<path d="M17.5847 18.2796C17.5847 18.2796 17.2287 19.2136 16.396 18.9976C15.4486 18.7518 15.5618 17.6212 15.5618 17.6212" fill="white"/>
<path d="M10.5422 17.8655C11.4587 17.8655 12.2017 16.677 12.2017 15.211C12.2017 13.745 11.4587 12.5565 10.5422 12.5565C9.62576 12.5565 8.88281 13.745 8.88281 15.211C8.88281 16.677 9.62576 17.8655 10.5422 17.8655Z" fill="#000072"/>
<path d="M11.5581 14.6486C11.6074 14.1831 11.4086 13.7805 11.1141 13.7493C10.8196 13.7181 10.5409 14.0702 10.4916 14.5357C10.4423 15.0012 10.6411 15.4038 10.9356 15.435C11.2301 15.4662 11.5088 15.1141 11.5581 14.6486Z" fill="white"/>
<g opacity="0.35">
<path d="M10.1702 17.2314C10.327 17.155 10.3467 16.8724 10.2141 16.6003C10.0815 16.3281 9.84694 16.1694 9.69015 16.2457C9.53336 16.3221 9.51372 16.6047 9.6463 16.8768C9.77887 17.149 10.0134 17.3077 10.1702 17.2314Z" fill="white"/>
</g>
<path d="M20.5027 17.8655C21.4192 17.8655 22.1621 16.677 22.1621 15.211C22.1621 13.745 21.4192 12.5565 20.5027 12.5565C19.5862 12.5565 18.8433 13.745 18.8433 15.211C18.8433 16.677 19.5862 17.8655 20.5027 17.8655Z" fill="#000072"/>
<path d="M20.1073 15.4322C20.4018 15.401 20.6006 14.9984 20.5513 14.5329C20.502 14.0674 20.2233 13.7153 19.9288 13.7465C19.6343 13.7777 19.4355 14.1803 19.4848 14.6458C19.5341 15.1113 19.8128 15.4634 20.1073 15.4322Z" fill="white"/>
<g opacity="0.35">
<path d="M21.3982 16.8823C21.5308 16.6101 21.5111 16.3276 21.3543 16.2512C21.1975 16.1748 20.963 16.3335 20.8304 16.6057C20.6978 16.8779 20.7174 17.1604 20.8742 17.2368C21.031 17.3132 21.2656 17.1544 21.3982 16.8823Z" fill="white"/>
</g>
<g opacity="0.3">
<path d="M13.4288 37.1649C12.5916 37.8278 10.5211 37.7041 9.10596 36.0358C8.53842 35.3669 8.07664 33.7448 7.84277 32.5322L11.0082 29.6617C11.1944 30.9905 11.8692 32.0168 12.5663 32.8823C13.9204 34.564 15.3549 35.6425 13.4288 37.1649Z" fill="#000072"/>
</g>
<g opacity="0.3">
<path d="M16.8504 37.1649C17.6876 37.8278 19.7581 37.7041 21.1733 36.0358C21.7408 35.3669 22.2026 33.7448 22.4365 32.5322L19.271 29.6617C19.0848 30.9905 18.41 32.0168 17.7129 32.8823C16.3589 34.564 14.9244 35.6425 16.8504 37.1649Z" fill="#000072"/>
</g>
<path d="M13.4288 35.9642C12.5916 36.6271 10.5211 36.5035 9.10596 34.8351C8.53842 34.1663 8.07664 33.2502 7.84277 32.0361L11.0082 28.4596C11.1944 29.7883 11.8692 30.8147 12.5663 31.6801C13.9204 33.3649 15.3549 34.4419 13.4288 35.9642Z" fill="#BFBFBF"/>
<path d="M13.4288 35.9643C12.5916 36.6271 10.5211 36.5035 9.10596 34.8351C9.3145 33.4751 11.0707 31.8425 12.5663 31.6816C13.9204 33.3649 15.3549 34.4419 13.4288 35.9643Z" fill="white"/>
<g opacity="0.3">
<path d="M13.4285 35.9643C12.5914 36.6271 10.5208 36.5035 9.10568 34.8351C8.63199 34.2765 8.23277 33.5466 7.97656 32.6141C8.18958 33.067 8.44281 33.4558 8.71988 33.782C10.135 35.4503 12.2056 35.574 13.0427 34.9111C13.7175 34.3778 13.9797 33.8982 13.9767 33.429C14.5279 34.2676 14.6068 35.0333 13.4285 35.9643Z" fill="#000072"/>
</g>
<path d="M11.2167 28.4313C11.4893 29.7779 12.2535 30.9071 13.1517 31.9334C14.3344 33.2949 15.5455 34.5685 13.758 36.0924C13.2366 36.5676 12.4873 36.6957 11.8096 36.6286C9.54982 36.4141 7.7891 34.2616 7.7027 32.0615C7.69823 31.9036 7.9187 31.8559 7.97828 32.0019C8.10937 32.3281 8.21513 32.6529 8.35217 32.9642C8.83034 34.1872 9.67345 35.3252 10.9337 35.7915C11.6382 36.0581 12.5126 36.1713 13.177 35.7602C13.2902 35.6812 13.4317 35.5576 13.5375 35.4563C14.0052 35.0199 14.2212 34.5193 13.9173 33.922C13.6269 33.3381 13.1338 32.8227 12.7093 32.3073C11.7902 31.2348 10.8934 29.9552 10.7981 28.4879C10.7832 28.2317 11.1586 28.1736 11.2167 28.4313Z" fill="#000072"/>
<path d="M16.8504 35.9642C17.6876 36.6271 19.7581 36.5034 21.1733 34.8351C21.7408 34.1663 22.2026 33.2501 22.4365 32.0361L19.271 28.4611C19.0848 29.7898 18.41 30.8161 17.7129 31.6816C16.3589 33.3648 14.9244 34.4418 16.8504 35.9642Z" fill="#BFBFBF"/>
<path d="M16.8504 35.9643C17.6876 36.6271 19.7581 36.5035 21.1733 34.8351C20.9647 33.4751 19.2085 31.8425 17.7129 31.6816C16.3589 33.3649 14.9244 34.4419 16.8504 35.9643Z" fill="white"/>
<path d="M19.4807 28.4908C19.363 30.3424 18.0208 31.7649 16.9021 33.1101C16.1305 34.0783 15.8639 34.7427 16.9185 35.6215C17.571 36.201 18.5794 36.0818 19.3436 35.7928C20.6038 35.3251 21.4469 34.1885 21.9251 32.9656C22.0607 32.6557 22.1664 32.3325 22.296 32.0092C22.3228 31.9333 22.4092 31.8945 22.4837 31.9243C22.5418 31.9482 22.5746 32.0033 22.5731 32.0629C22.5448 32.7823 22.3422 33.5003 21.9877 34.1438C21.2876 35.4502 19.9841 36.493 18.4662 36.6285C17.3535 36.7298 16.5834 36.3634 15.9294 35.4562C15.2457 34.4835 15.7849 33.5286 16.4404 32.7391C17.0988 31.9392 17.8302 31.178 18.3366 30.2902C18.6748 29.7108 18.9206 29.0881 19.0606 28.4297C19.1187 28.178 19.4956 28.2271 19.4807 28.4908Z" fill="#000072"/>
<path d="M17.1021 18.3258C17.1021 18.3258 17.0708 19.0349 16.8131 19.7514C16.758 19.9048 16.682 20.0389 16.5912 20.1521C16.0698 20.7986 15.0465 20.7986 14.5251 20.1521C14.4342 20.0389 14.3583 19.9048 14.3031 19.7514C14.0469 19.0349 14.0142 18.3258 14.0142 18.3258H17.1021Z" fill="#000072"/>
<path d="M16.591 20.152C16.0696 20.7985 15.0463 20.7985 14.5249 20.152C15.0448 19.5055 16.0696 19.5055 16.591 20.152Z" fill="#F27E80"/>
<path d="M15.5572 20.9281C14.863 20.9281 14.2627 20.5051 14.0288 19.8497C13.7607 19.1004 13.725 18.3705 13.7235 18.3392C13.716 18.1798 13.8397 18.0443 14.0005 18.0368C14.1599 18.0309 14.2955 18.153 14.3029 18.3139C14.3029 18.3198 14.3372 18.9902 14.5755 19.6545C14.7587 20.1655 15.2026 20.3487 15.5587 20.3487C15.9147 20.3487 16.3571 20.167 16.5418 19.6545C16.7801 18.9902 16.8129 18.3198 16.8144 18.3139C16.8218 18.1545 16.9574 18.0294 17.1168 18.0368C17.2762 18.0443 17.3998 18.1798 17.3939 18.3392C17.3924 18.3705 17.3566 19.1004 17.0885 19.8497C16.8516 20.5051 16.2513 20.9281 15.5572 20.9281Z" fill="#000072"/>
<g opacity="0.25">
<path d="M17.5845 18.6624C17.5845 18.6624 17.2284 19.5963 16.3958 19.3803C15.4484 19.1346 15.5765 18.6787 15.5348 18.6787C15.493 18.6787 15.6405 19.1346 14.6916 19.3803C13.8589 19.5963 13.5029 18.6624 13.5029 18.6624C13.5029 18.6624 13.4865 16.349 15.5348 16.349C17.583 16.349 17.5845 18.6624 17.5845 18.6624Z" fill="#6B184E"/>
</g>
<path d="M17.5846 18.2795C17.5846 18.2795 17.2286 19.2135 16.3959 18.9975C15.4486 18.7518 15.5618 17.6211 15.5618 17.6211H15.526C15.526 17.6211 15.6392 18.7518 14.6918 18.9975C13.8591 19.2135 13.5031 18.2795 13.5031 18.2795C13.5031 18.2795 12.2921 15.9662 15.5349 15.9662C18.7778 15.9662 17.5846 18.2795 17.5846 18.2795Z" fill="white"/>
<g opacity="0.25">
<path d="M17.5713 18.3093C17.5028 18.4672 17.1393 19.1897 16.396 18.9975C15.4471 18.7517 15.5618 17.6211 15.5618 17.6211H15.5275C15.5275 17.6211 15.6408 18.7517 14.6934 18.9975C13.9501 19.1897 13.5866 18.4672 13.5181 18.3093C13.7519 18.4672 14.0588 18.5581 14.4446 18.4583C15.6691 18.141 15.5216 16.6812 15.5216 16.6812H15.5678C15.5678 16.6812 15.4203 18.141 16.6448 18.4583C17.0306 18.5595 17.3374 18.4687 17.5713 18.3093Z" fill="#000072"/>
</g>
<path d="M13.6358 18.2303C13.8712 18.6251 14.2525 18.9498 14.7277 18.7591C15.194 18.6131 15.3682 18.0709 15.3876 17.624C15.3921 17.5466 15.4591 17.487 15.5366 17.49C15.7049 17.5034 15.6781 17.7164 15.69 17.8341C15.693 18.0635 15.6617 18.2884 15.5678 18.5044C15.4204 18.8783 15.045 19.1688 14.6413 19.2269C14.1408 19.3311 13.6537 18.9885 13.4571 18.5461C13.4049 18.4314 13.2873 18.2169 13.4705 18.1558C13.5375 18.135 13.6045 18.1692 13.6358 18.2303Z" fill="#000072"/>
<path d="M17.7171 18.3302C17.5295 18.9886 16.8889 19.437 16.2141 19.1629C15.5796 18.9514 15.3144 18.2214 15.4231 17.6077C15.4529 17.4439 15.6943 17.4588 15.7032 17.6241C15.7211 18.071 15.8968 18.6132 16.3631 18.7592C16.8442 18.9513 17.2286 18.6162 17.4639 18.2155C17.5473 18.0784 17.7618 18.1768 17.7171 18.3302Z" fill="#000072"/>
<path d="M16.6866 16.8852C16.6866 17.1533 16.338 17.5331 16.0178 17.6925C15.6826 17.8609 15.3072 17.8609 14.9721 17.6925C14.6518 17.5317 14.3032 17.1518 14.3032 16.8852C14.3032 16.4025 16.6866 16.4025 16.6866 16.8852Z" fill="#000072"/>
<g opacity="0.5">
<path d="M15.9669 16.8718C15.9669 16.9493 15.8283 17.0163 15.7017 17.064C15.5691 17.1131 15.4202 17.1131 15.2876 17.064C15.161 17.0178 15.0225 16.9493 15.0225 16.8718C15.0225 16.6379 15.9669 16.6379 15.9669 16.8718Z" fill="white"/>
</g>
<path d="M9.52021 10.0616C10.0401 9.54769 10.9219 9.43448 11.5252 9.86647C11.6101 9.92158 11.6816 9.99308 11.7561 10.0601C11.8485 10.1465 11.8529 10.291 11.7665 10.3834C11.6965 10.4593 11.5863 10.4757 11.4984 10.4325C11.4537 10.4102 11.4061 10.3863 11.3629 10.3625C11.2064 10.2731 11.0322 10.215 10.8549 10.1852C10.4795 10.1316 10.1012 10.2687 9.76748 10.4325C9.53659 10.5308 9.34295 10.2344 9.52021 10.0616Z" fill="#000072"/>
<path d="M21.2595 10.4159C20.692 10.1224 20.1632 10.0777 19.606 10.4174C19.4884 10.4918 19.329 10.4576 19.2664 10.3295C19.1666 10.118 19.4049 9.97942 19.5465 9.8677C19.8042 9.69044 20.1214 9.58914 20.4358 9.59808C20.8558 9.60851 21.2491 9.77237 21.5515 10.0613C21.7451 10.2684 21.5008 10.5544 21.2595 10.4159Z" fill="#000072"/>
<path d="M11.7247 35.5188C11.9868 35.7213 12.3175 35.8748 12.6467 35.921C12.757 35.9388 12.8672 35.9358 12.9744 35.9314C13.3841 35.9329 13.3543 36.5347 12.9461 36.4959C12.5261 36.4468 12.1358 36.2621 11.8125 35.9969C11.7083 35.9105 11.6144 35.8226 11.5206 35.7139C11.4699 35.6543 11.4759 35.5664 11.5355 35.5143C11.5906 35.4681 11.6725 35.4726 11.7247 35.5188Z" fill="#000072"/>
<path d="M12.5482 34.4791C12.9623 34.7696 13.4732 35.0258 13.9871 35.0049C14.3938 35.0005 14.3759 35.5993 13.9692 35.5695C13.4881 35.5144 13.0651 35.2805 12.6941 34.9885C12.5765 34.8947 12.4662 34.7994 12.3575 34.6876C12.3024 34.6325 12.3039 34.5431 12.359 34.488C12.4111 34.4359 12.493 34.4344 12.5482 34.4791Z" fill="#000072"/>
<path d="M18.8198 35.7155C18.4519 36.134 17.9529 36.4275 17.3957 36.496C17.0233 36.5377 16.9459 35.9985 17.3153 35.9344C17.4404 35.9285 17.5656 35.9463 17.6937 35.921C18.0229 35.8763 18.3551 35.7214 18.6157 35.5188C18.7483 35.4011 18.9345 35.5814 18.8198 35.7155Z" fill="#000072"/>
<path d="M17.9838 34.6876C17.5414 35.124 17.0067 35.4905 16.3721 35.5694C15.9997 35.6022 15.9341 35.063 16.305 35.0064C16.5672 35.0168 16.8353 34.9706 17.0871 34.8678C17.3344 34.7695 17.5861 34.631 17.8006 34.4746C17.9391 34.3748 18.103 34.5654 17.9838 34.6876Z" fill="#000072"/>
<g opacity="0.3">
<path d="M16.8503 35.9643C17.6875 36.6271 19.7581 36.5035 21.1732 34.8351C21.6469 34.2765 22.0461 33.5466 22.3023 32.6141C22.0893 33.067 21.8361 33.4558 21.559 33.782C20.1439 35.4503 18.0733 35.574 17.2362 34.9111C16.5614 34.3778 16.2992 33.8982 16.3022 33.429C15.751 34.2676 15.6721 35.0333 16.8503 35.9643Z" fill="#000072"/>
</g>
<path d="M55.5804 21.686C54.6809 21.686 53.8464 21.5451 53.0769 21.2633C52.3183 20.9707 51.6572 20.5589 51.0936 20.0278C50.5409 19.4968 50.1074 18.8736 49.7931 18.1583C49.4788 17.4322 49.3217 16.6357 49.3217 15.7687C49.3217 14.9016 49.4788 14.1105 49.7931 13.3952C50.1074 12.6691 50.5409 12.0405 51.0936 11.5095C51.6572 10.9784 52.3183 10.572 53.0769 10.2902C53.8464 9.99763 54.6809 9.85132 55.5804 9.85132C56.6316 9.85132 57.5691 10.0356 58.3928 10.404C59.2273 10.7725 59.9209 11.3036 60.4736 11.9972L58.4253 13.8504C58.0568 13.4169 57.6504 13.0863 57.206 12.8588C56.7725 12.6312 56.2848 12.5174 55.743 12.5174C55.2769 12.5174 54.8489 12.5932 54.4587 12.745C54.0686 12.8967 53.7326 13.1189 53.4508 13.4115C53.1799 13.6932 52.9631 14.0346 52.8006 14.4356C52.6488 14.8366 52.573 15.281 52.573 15.7687C52.573 16.2563 52.6488 16.7007 52.8006 17.1017C52.9631 17.5027 53.1799 17.8495 53.4508 18.1421C53.7326 18.4239 54.0686 18.6406 54.4587 18.7923C54.8489 18.9441 55.2769 19.0199 55.743 19.0199C56.2848 19.0199 56.7725 18.9061 57.206 18.6785C57.6504 18.451 58.0568 18.1204 58.4253 17.6869L60.4736 19.5401C59.9209 20.2229 59.2273 20.7539 58.3928 21.1333C57.5691 21.5017 56.6316 21.686 55.5804 21.686Z" fill="#FF708F"/>
<path d="M60.3527 21.4584L65.3759 10.0789H68.5459L73.5854 21.4584H70.2366L66.3025 11.6558H67.5705L63.6365 21.4584H60.3527ZM63.1 19.2475L63.9291 16.8741H69.4888L70.3179 19.2475H63.1Z" fill="#FF708F"/>
<path d="M76.3486 21.4584V12.6312H72.8535V10.0789H83.0462V12.6312H79.5674V21.4584H76.3486Z" fill="#FF708F"/>
<path d="M53.906 35.3414C52.974 35.3414 52.0744 35.2276 51.2074 35C50.3513 34.7616 49.6522 34.4581 49.1104 34.0896L50.167 31.7162C50.6764 32.0413 51.2616 32.3123 51.9227 32.529C52.5946 32.7349 53.2612 32.8379 53.9222 32.8379C54.3666 32.8379 54.7242 32.7999 54.9952 32.7241C55.2661 32.6374 55.4612 32.529 55.5804 32.399C55.7105 32.2581 55.7755 32.0955 55.7755 31.9113C55.7755 31.6512 55.6563 31.4452 55.4178 31.2935C55.1794 31.1418 54.8705 31.0172 54.4912 30.9196C54.1119 30.8221 53.6892 30.7245 53.2232 30.627C52.768 30.5295 52.3074 30.4048 51.8414 30.2531C51.3862 30.1014 50.969 29.9063 50.5897 29.6679C50.2104 29.4186 49.9015 29.0989 49.6631 28.7087C49.4246 28.3078 49.3054 27.8038 49.3054 27.1969C49.3054 26.5141 49.4897 25.8964 49.8581 25.3437C50.2375 24.791 50.801 24.3466 51.5488 24.0106C52.2966 23.6747 53.2286 23.5067 54.3449 23.5067C55.0927 23.5067 55.8242 23.5934 56.5395 23.7668C57.2656 23.9294 57.9105 24.1732 58.474 24.4983L57.4824 26.888C56.9405 26.5954 56.4041 26.3787 55.873 26.2378C55.342 26.0861 54.8272 26.0102 54.3287 26.0102C53.8843 26.0102 53.5267 26.059 53.2557 26.1565C52.9848 26.2432 52.7897 26.3624 52.6705 26.5141C52.5513 26.6659 52.4917 26.8393 52.4917 27.0343C52.4917 27.2836 52.6055 27.4841 52.8331 27.6358C53.0715 27.7767 53.3804 27.8959 53.7597 27.9935C54.1498 28.0802 54.5725 28.1723 55.0277 28.2698C55.4937 28.3674 55.9543 28.492 56.4095 28.6437C56.8755 28.7846 57.2982 28.9797 57.6775 29.229C58.0568 29.4674 58.3602 29.7871 58.5878 30.1881C58.8263 30.5782 58.9455 31.0713 58.9455 31.6674C58.9455 32.3285 58.7558 32.9408 58.3765 33.5044C58.008 34.0571 57.4499 34.5014 56.7021 34.8374C55.9651 35.1734 55.0331 35.3414 53.906 35.3414Z" fill="#FF708F"/>
<path d="M68.0403 23.7343H71.2591V35.1138H68.0403V23.7343ZM63.6511 35.1138H60.4323V23.7343H63.6511V35.1138ZM68.2679 30.6758H63.4235V28.0097H68.2679V30.6758Z" fill="#FF708F"/>
<path d="M79.268 35.3414C78.3577 35.3414 77.5177 35.1951 76.7483 34.9024C75.9788 34.6098 75.3069 34.198 74.7325 33.667C74.1689 33.1251 73.73 32.4965 73.4157 31.7812C73.1014 31.0659 72.9443 30.2802 72.9443 29.424C72.9443 28.5679 73.1014 27.7821 73.4157 27.0669C73.73 26.3516 74.1689 25.7284 74.7325 25.1974C75.3069 24.6555 75.9788 24.2382 76.7483 23.9456C77.5177 23.653 78.3577 23.5067 79.268 23.5067C80.1892 23.5067 81.0291 23.653 81.7878 23.9456C82.5572 24.2382 83.2237 24.6555 83.7873 25.1974C84.3509 25.7284 84.7898 26.3516 85.1041 27.0669C85.4292 27.7821 85.5918 28.5679 85.5918 29.424C85.5918 30.2802 85.4292 31.0713 85.1041 31.7975C84.7898 32.5127 84.3509 33.1359 83.7873 33.667C83.2237 34.198 82.5572 34.6098 81.7878 34.9024C81.0291 35.1951 80.1892 35.3414 79.268 35.3414ZM79.268 32.6753C79.7015 32.6753 80.1025 32.5995 80.471 32.4477C80.8503 32.296 81.1754 32.0792 81.4464 31.7975C81.7282 31.5049 81.9449 31.1581 82.0966 30.7571C82.2592 30.3561 82.3405 29.9117 82.3405 29.424C82.3405 28.9255 82.2592 28.4812 82.0966 28.091C81.9449 27.69 81.7282 27.3486 81.4464 27.0669C81.1754 26.7742 80.8503 26.5521 80.471 26.4003C80.1025 26.2486 79.7015 26.1728 79.268 26.1728C78.8345 26.1728 78.4281 26.2486 78.0488 26.4003C77.6803 26.5521 77.3552 26.7742 77.0734 27.0669C76.8025 27.3486 76.5857 27.69 76.4231 28.091C76.2714 28.4812 76.1956 28.9255 76.1956 29.424C76.1956 29.9117 76.2714 30.3561 76.4231 30.7571C76.5857 31.1581 76.8025 31.5049 77.0734 31.7975C77.3552 32.0792 77.6803 32.296 78.0488 32.4477C78.4281 32.5995 78.8345 32.6753 79.268 32.6753Z" fill="#FF708F"/>
<path d="M87.2776 35.1138V23.7343H92.4796C93.5201 23.7343 94.4142 23.9023 95.162 24.2382C95.9206 24.5742 96.5058 25.0619 96.9177 25.7013C97.3295 26.3299 97.5354 27.0777 97.5354 27.9447C97.5354 28.8009 97.3295 29.5432 96.9177 30.1718C96.5058 30.8004 95.9206 31.2881 95.162 31.6349C94.4142 31.9709 93.5201 32.1389 92.4796 32.1389H89.0658L90.4964 30.7408V35.1138H87.2776ZM90.4964 31.0822L89.0658 29.6029H92.2846C92.9565 29.6029 93.455 29.4565 93.7802 29.1639C94.1161 28.8713 94.2841 28.4649 94.2841 27.9447C94.2841 27.4137 94.1161 27.0018 93.7802 26.7092C93.455 26.4166 92.9565 26.2703 92.2846 26.2703H89.0658L90.4964 24.791V31.0822Z" fill="#FF708F"/>
</svg>
