<svg width="24" height="24" viewBox="0 0 24 24" fill="none" xmlns="http://www.w3.org/2000/svg">
<path d="M18.984 15.5283C17.8172 14.5982 16.6332 14.0349 15.4808 14.9635L14.7927 15.5248C14.2892 15.9322 13.3531 17.8358 9.73382 13.9555C6.11531 10.0801 8.26863 9.47668 8.77286 9.07277L9.46475 8.51081C10.6111 7.58006 10.1785 6.40838 9.3517 5.20228L8.85275 4.47173C8.02217 3.26844 7.11773 2.47818 5.96834 3.40752L5.3473 3.91328C4.8393 4.25819 3.41933 5.37929 3.07489 7.50912C2.66036 10.0646 3.96803 12.991 6.96398 16.2019C9.95617 19.4142 12.8858 21.0277 15.6609 20.9996C17.9672 20.9765 19.3601 19.823 19.7957 19.4037L20.419 18.8972C21.5654 17.9686 20.8531 17.0231 19.6857 16.0909L18.984 15.5283Z" fill="current
Color"/>
</svg>
